<?xml version="1.0" standalone="no"?>
<!DOCTYPE svg PUBLIC "-//W3C//DTD SVG 20010904//EN"
 "http://www.w3.org/TR/2001/REC-SVG-20010904/DTD/svg10.dtd">
<svg version="1.0" xmlns="http://www.w3.org/2000/svg"
 width="3072.000000pt" height="2304.000000pt" viewBox="0 0 3072.000000 2304.000000"
 preserveAspectRatio="xMidYMid meet">
<metadata>
Created by potrace 1.16, written by Peter Selinger 2001-2019
</metadata>
<g transform="translate(0.000000,2304.000000) scale(0.100000,-0.100000)"
fill="#000000" stroke="none">
<path d="M0 21861 l0 -1180 42 -5 c24 -4 88 -11 143 -17 55 -6 111 -12 125
-14 156 -21 254 -33 295 -34 28 -1 75 -6 105 -11 30 -5 100 -14 155 -20 55 -6
154 -17 220 -25 66 -8 161 -19 210 -25 50 -5 137 -16 195 -25 58 -9 112 -16
120 -17 8 0 31 -4 50 -8 19 -5 78 -11 130 -15 52 -3 124 -10 160 -15 36 -5
110 -14 165 -20 55 -6 127 -16 160 -21 95 -17 106 -19 180 -25 92 -8 109 -17
101 -56 -3 -17 -1 -37 5 -44 9 -11 4 -20 -20 -43 -30 -28 -35 -40 -32 -69 6
-40 -53 -56 -82 -22 -9 11 -28 20 -42 20 -15 0 -24 4 -20 9 3 5 1 12 -5 16 -5
3 -10 2 -10 -3 0 -18 -33 -23 -50 -7 -9 8 -35 15 -58 15 -33 0 -42 4 -42 18 0
9 -4 13 -8 7 -8 -12 -40 -33 -62 -41 -8 -3 -22 -9 -30 -13 -20 -11 -60 16 -53
35 8 21 -7 17 -55 -15 -40 -28 -41 -30 -20 -37 13 -4 24 -2 26 5 2 7 8 6 18
-3 7 -8 23 -12 34 -9 11 3 20 1 20 -4 0 -6 32 -13 72 -17 39 -3 78 -12 85 -18
10 -8 20 -8 39 0 16 8 30 9 42 2 20 -11 107 -31 137 -32 57 -1 175 -44 175
-63 0 -6 -17 -24 -37 -40 -46 -35 -153 -146 -153 -158 0 -30 172 74 237 143
15 17 32 30 37 30 5 0 6 -47 1 -112 -9 -129 -9 -144 -1 -253 5 -66 2 -91 -14
-135 -17 -45 -18 -60 -9 -94 15 -54 16 -157 5 -281 -8 -82 -11 -216 -7 -277 1
-11 -9 -507 -10 -533 0 -5 0 -105 1 -222 1 -117 -1 -216 -4 -221 -3 -4 -6 -63
-7 -130 -1 -68 -6 -125 -11 -128 -4 -3 -5 -10 -1 -17 3 -6 8 -73 9 -150 1
-102 -2 -149 -12 -173 -10 -25 -12 -40 -4 -53 5 -11 7 -33 4 -49 -4 -17 -1
-32 5 -36 8 -5 7 -12 -4 -22 -19 -20 -19 -35 0 -28 12 5 13 -3 8 -48 -3 -29
-11 -65 -18 -79 -10 -22 -9 -32 6 -65 11 -21 16 -40 12 -43 -18 -13 -31 -49
-23 -62 6 -8 3 -20 -7 -31 -14 -15 -14 -21 -1 -55 9 -21 14 -47 11 -58 -11
-56 -20 -256 -16 -375 2 -74 3 -142 3 -150 -3 -140 1 -296 9 -335 5 -27 6 -54
2 -60 -5 -5 -9 -84 -10 -175 -2 -195 -6 -268 -14 -277 -4 -3 -2 -12 3 -18 12
-15 12 -1 7 -295 -2 -124 -1 -234 3 -245 11 -33 0 -125 -15 -125 -19 0 -25
-23 -10 -40 19 -22 35 -119 24 -148 -5 -13 -6 -29 -2 -35 8 -14 5 -47 -7 -62
-17 -23 -19 -74 -3 -105 12 -25 14 -45 8 -89 -8 -58 -8 -61 -2 -151 2 -30 1
-59 -1 -64 -7 -13 -5 -102 2 -115 4 -6 4 -16 1 -22 -4 -6 3 -21 15 -34 l22
-24 -22 -36 c-22 -36 -22 -38 -6 -72 9 -19 13 -39 10 -45 -11 -17 -13 -68 -3
-62 11 6 12 -10 2 -20 -14 -13 -9 -55 5 -61 13 -5 12 -8 -1 -23 -10 -10 -15
-30 -13 -47 2 -17 5 -30 6 -30 8 0 7 -101 -1 -111 -6 -8 -7 -23 -3 -36 11 -32
11 -41 2 -61 -5 -9 -8 -36 -8 -60 1 -85 7 -242 10 -247 1 -3 1 -19 0 -36 -1
-18 3 -35 8 -38 10 -6 5 -222 -7 -302 -5 -36 -4 -57 5 -68 17 -23 14 -430 -4
-448 -17 -17 -15 -45 3 -52 13 -5 14 -10 4 -28 -9 -16 -9 -23 0 -26 6 -2 11
-17 11 -33 0 -16 5 -29 11 -29 7 0 8 -7 4 -17 -9 -21 -15 -254 -7 -267 8 -14
2 -110 -8 -120 -5 -5 -4 -20 2 -35 9 -23 14 -172 11 -306 -1 -27 -1 -110 0
-184 0 -96 -3 -136 -11 -139 -8 -2 -9 -9 -3 -20 5 -9 7 -37 6 -62 -2 -25 -5
-85 -7 -135 -3 -49 -10 -103 -16 -118 -9 -20 -9 -34 -2 -48 6 -10 7 -19 3 -19
-4 0 -2 -5 4 -11 12 -12 6 -39 -10 -50 -12 -8 -17 -98 -5 -105 4 -3 4 -14 -2
-24 -5 -10 -10 -31 -10 -47 0 -16 -7 -38 -15 -50 -9 -14 -13 -35 -10 -58 3
-25 0 -38 -10 -41 -20 -8 -25 -29 -15 -64 7 -23 6 -32 -5 -36 -8 -3 -11 -12
-8 -19 2 -8 1 -20 -3 -27 -4 -6 -9 -23 -11 -37 -2 -15 -4 -35 -6 -46 -3 -24
-43 -155 -63 -208 -8 -21 -12 -42 -9 -47 3 -5 2 -17 -3 -27 -27 -55 -42 -78
-49 -78 -34 -1 -56 -51 -41 -92 9 -23 7 -41 -7 -87 -10 -32 -24 -63 -30 -70
-7 -7 -16 -31 -20 -54 -4 -26 -12 -42 -21 -42 -8 0 -24 -21 -36 -48 -29 -60
-26 -58 -40 -44 -18 18 -27 15 -21 -7 3 -13 11 -17 26 -13 16 4 19 2 14 -12
-4 -10 -10 -29 -13 -42 -5 -18 -13 -24 -35 -24 -26 0 -29 -4 -29 -30 0 -26 -4
-30 -26 -30 -23 0 -24 -1 -10 -16 21 -20 20 -44 0 -44 -10 0 -14 6 -10 15 3 8
1 15 -4 15 -6 0 -10 -7 -10 -15 0 -10 -7 -15 -18 -13 -11 2 -18 -4 -20 -19 -4
-25 7 -30 25 -12 22 22 34 4 13 -19 -12 -12 -25 -20 -31 -17 -10 7 -27 -8 -46
-40 -6 -11 -16 -19 -22 -17 -20 4 -24 -27 -7 -53 9 -14 26 -26 39 -26 20 -1
20 -2 2 -6 -11 -3 -24 -9 -29 -14 -5 -5 -14 -1 -22 8 -10 15 -14 16 -29 3 -10
-8 -20 -13 -22 -12 -3 2 -8 0 -11 -4 -4 -4 -2 -5 3 -1 13 7 38 -30 26 -38 -5
-3 -16 -2 -25 1 -19 7 -21 -7 -4 -24 9 -9 8 -12 -3 -16 -8 -2 -22 -7 -31 -10
-10 -3 -18 -1 -18 4 0 6 -9 10 -20 10 -14 0 -20 -7 -20 -21 0 -32 19 -59 40
-59 27 0 29 -57 3 -67 -10 -4 -28 -17 -41 -31 -19 -20 -28 -23 -62 -17 -22 4
-40 5 -40 2 0 -16 27 -53 36 -50 18 6 26 -27 9 -33 -8 -4 -15 -12 -15 -20 0
-8 -6 -14 -14 -14 -8 0 -18 -5 -21 -11 -4 -6 0 -9 8 -7 19 4 23 -15 5 -23 -7
-4 -26 -13 -43 -20 -16 -8 -36 -21 -43 -29 -8 -8 -11 -9 -7 -3 10 20 -13 15
-24 -5 -6 -10 -6 -24 -1 -32 10 -17 3 -33 -12 -24 -6 4 -6 -2 1 -15 7 -11 8
-22 4 -22 -4 -1 -15 -2 -23 -3 -8 0 -15 -13 -17 -29 -2 -35 -29 -61 -62 -62
-20 0 -26 -5 -27 -24 -1 -13 -8 -28 -15 -33 -12 -8 -12 -10 -1 -15 10 -4 6
-13 -13 -34 -24 -24 -29 -26 -42 -13 -20 20 -43 18 -43 -5 0 -11 6 -18 16 -17
9 0 19 -5 22 -13 3 -10 -1 -13 -16 -9 -11 3 -26 2 -33 -3 -11 -7 -10 -11 5
-22 12 -9 17 -20 13 -31 -8 -20 -31 -21 -47 -1 -7 8 -20 15 -29 15 -10 0 -12
-3 -5 -8 6 -4 17 -17 23 -30 11 -21 10 -24 -8 -29 -12 -3 -21 -12 -21 -19 0
-8 -6 -14 -12 -14 -7 0 -26 -14 -43 -31 -16 -17 -42 -43 -57 -58 -17 -18 -25
-35 -22 -47 4 -14 -3 -23 -28 -33 -47 -20 -67 -40 -63 -62 2 -10 0 -19 -5 -19
-5 0 -16 -8 -25 -17 -10 -9 -29 -17 -43 -18 -14 0 -27 -6 -30 -13 -2 -7 -10
-12 -17 -12 -7 0 -26 -12 -42 -27 -15 -16 -41 -34 -56 -42 -16 -9 -26 -20 -23
-28 6 -15 -30 -56 -43 -49 -10 7 -38 -27 -34 -41 3 -7 -4 -12 -14 -12 -59 -1
-104 -22 -70 -34 6 -2 3 -3 -7 -1 -11 2 -35 -10 -53 -26 -19 -17 -38 -30 -43
-30 -6 0 -9 -5 -7 -12 1 -7 -11 -15 -28 -19 -16 -4 -25 -7 -20 -8 6 -1 -10
-12 -35 -25 -25 -13 -44 -29 -42 -36 2 -8 -3 -10 -13 -7 -9 4 -20 -1 -27 -13
-15 -24 -38 -26 -38 -5 0 8 -4 15 -10 15 -5 0 -10 -5 -10 -11 0 -6 -7 -9 -15
-6 -11 5 -12 1 -6 -16 10 -28 4 -47 -13 -41 -8 3 -21 -2 -29 -11 -9 -9 -20
-16 -24 -17 -23 -2 -54 -20 -59 -33 -3 -8 -10 -12 -16 -9 -5 3 -19 -3 -31 -14
-35 -32 -101 -66 -105 -53 -17 51 -21 -55 -22 -519 0 -447 2 -530 14 -530 7 0
19 6 25 13 6 8 29 20 52 27 23 8 43 20 46 27 3 7 10 13 16 13 6 0 38 17 71 39
34 21 102 60 151 86 119 62 455 285 463 306 2 5 8 9 13 9 13 0 217 153 267
201 41 38 153 129 160 129 13 0 92 75 92 88 0 7 4 11 9 8 4 -3 95 80 202 185
107 104 207 197 222 205 15 8 31 23 35 33 4 10 46 61 94 112 48 52 102 113
120 136 27 35 77 96 171 213 7 8 30 40 52 70 21 30 54 73 72 94 18 22 33 44
33 50 0 6 10 22 23 36 12 14 34 41 49 62 15 20 34 43 42 50 7 8 17 30 21 49 4
19 20 50 35 69 15 19 38 54 50 78 12 23 26 45 32 48 5 3 13 16 19 27 5 12 13
29 19 37 41 64 184 335 195 370 4 14 24 61 45 105 20 44 43 98 50 120 13 43
31 86 61 151 10 23 19 45 19 49 0 4 6 21 13 38 24 58 68 191 97 292 16 55 33
116 39 135 6 19 16 62 21 95 10 62 21 109 65 285 14 58 30 139 35 180 4 41 13
107 19 145 7 39 14 84 17 102 3 18 11 39 19 47 11 10 15 45 15 137 1 68 6 162
10 209 5 47 11 122 14 168 3 46 7 86 10 90 4 7 12 114 23 327 4 66 7 836 8
1710 1 875 2 1669 3 1765 1 96 1 623 0 1170 -2 1155 7 2035 26 2650 3 85 8
331 11 545 2 215 7 421 11 458 3 38 7 211 9 385 3 175 7 367 10 427 3 61 8
281 10 490 2 209 7 502 10 650 10 412 11 573 4 676 -4 52 -3 115 2 142 5 26 9
84 10 129 1 45 6 96 11 112 6 17 11 78 13 136 2 81 -1 110 -13 128 -18 28 -18
172 1 355 l12 117 -1787 0 -1788 0 0 -1179z"/>
<path d="M4013 23030 c27 -5 51 -11 55 -14 3 -3 10 -2 16 4 7 5 29 5 56 -1 25
-6 69 -8 98 -4 41 5 53 3 58 -9 4 -12 16 -14 54 -9 36 4 59 1 87 -13 21 -10
43 -17 50 -16 7 2 15 -8 19 -22 6 -25 22 -36 59 -43 11 -2 26 -12 34 -23 7
-11 21 -20 30 -21 11 0 9 -3 -6 -9 -29 -12 -30 -40 -3 -40 12 0 31 -10 43 -23
12 -12 34 -30 50 -40 15 -10 27 -26 27 -36 0 -10 9 -21 20 -24 22 -6 28 -27 8
-27 -7 0 1 -11 17 -24 17 -13 30 -28 30 -33 1 -22 39 -102 46 -97 5 3 9 -2 9
-10 0 -9 7 -16 16 -16 8 0 12 5 9 10 -3 6 -2 10 4 10 5 0 11 -6 14 -12 3 -10
7 -10 17 -1 14 13 66 7 88 -10 9 -7 18 -2 33 17 12 15 30 26 44 26 13 0 27 5
30 10 3 6 15 10 25 10 11 0 24 9 30 20 8 15 17 19 34 14 14 -3 37 3 59 16 21
12 44 19 54 16 9 -4 13 -9 10 -13 -8 -7 20 -63 31 -63 19 0 28 -151 21 -315
-9 -193 -12 -305 -9 -320 1 -5 1 -14 0 -20 -4 -21 -11 -199 -14 -392 -3 -159
0 -205 10 -214 14 -12 34 -4 34 13 0 6 20 39 45 74 25 34 45 67 45 73 0 6 9
15 20 21 11 6 20 20 20 31 0 12 8 33 18 47 30 43 64 121 58 131 -4 5 -1 11 6
13 7 3 13 22 15 44 1 23 9 44 19 51 16 12 16 14 -2 30 -20 18 -21 52 -2 64 7
4 6 14 -1 28 -10 17 -9 21 4 21 18 0 18 2 4 34 -9 20 -9 29 1 41 10 12 10 18
0 30 -10 12 -10 18 0 30 10 11 10 19 2 27 -6 6 -8 17 -5 24 3 8 0 14 -6 14
-12 0 -4 59 10 74 5 5 -1 14 -14 21 -12 6 -22 20 -23 31 -1 12 -8 34 -16 51
-12 24 -12 31 -2 41 7 7 18 12 24 12 6 0 8 5 5 10 -3 6 -15 10 -26 10 -10 0
-19 5 -19 10 0 6 5 10 11 10 18 0 -2 20 -34 34 -24 11 -27 15 -12 15 14 1 16
4 8 9 -7 4 -14 17 -16 27 -2 11 -7 28 -11 37 -4 9 -5 22 -1 28 4 6 -4 10 -19
10 -17 0 -25 6 -26 18 -3 59 -9 84 -24 101 -10 11 -17 32 -15 48 1 15 -1 36
-5 45 -4 9 -5 22 -1 28 4 6 1 17 -5 25 -10 12 -10 15 0 15 8 0 9 10 4 33 -7
29 -9 97 -4 122 1 6 2 22 1 38 l-1 27 -737 -1 c-417 -1 -717 -5 -690 -9z"/>
<path d="M7885 22993 c-1 -27 -2 -66 -4 -88 -2 -22 0 -133 3 -247 4 -138 2
-209 -5 -213 -7 -5 -6 -11 1 -20 7 -8 8 -20 4 -26 -11 -19 -12 -152 -1 -167 5
-7 7 -15 4 -19 -4 -3 -2 -12 4 -19 6 -8 6 -14 0 -18 -6 -4 -4 -17 5 -34 9 -18
14 -50 12 -94 -2 -62 -4 -67 -22 -62 -15 5 -18 3 -13 -10 4 -9 1 -16 -4 -16
-7 0 -9 -11 -7 -25 3 -14 2 -28 -3 -30 -4 -3 -7 -70 -6 -149 1 -125 -1 -147
-18 -172 -21 -33 -23 -69 -26 -584 -3 -318 2 -480 13 -480 4 0 4 -111 1 -247
-7 -299 -8 -481 -1 -508 2 -11 8 -37 12 -58 5 -20 13 -40 19 -44 6 -4 7 -1 2
7 -5 9 -4 11 3 6 16 -10 15 -37 0 -35 -33 4 -37 -2 -33 -43 2 -24 -1 -48 -8
-56 -15 -19 -18 -198 -5 -322 6 -52 9 -142 8 -200 -2 -58 -4 -141 -4 -186 -1
-68 -5 -85 -24 -109 -18 -23 -22 -37 -17 -60 3 -16 7 -49 7 -72 1 -23 5 -40
10 -37 4 3 8 -3 8 -13 1 -10 3 -49 5 -88 8 -152 9 -294 2 -301 -4 -4 -7 -15
-7 -25 0 -10 -6 -22 -14 -26 -21 -12 -22 -54 -2 -95 20 -41 24 -91 14 -155 -5
-28 -3 -54 7 -76 8 -19 12 -43 9 -54 -5 -17 -1 -19 25 -15 20 3 31 0 31 -8 0
-7 -7 -10 -16 -6 -24 9 -44 -12 -44 -48 0 -17 -7 -44 -15 -60 -18 -35 -21 -95
-6 -159 14 -64 20 -131 22 -254 1 -58 6 -103 12 -103 5 0 6 -10 2 -22 -3 -13
-8 -30 -9 -38 -1 -9 -5 -21 -9 -27 -4 -6 -8 -36 -8 -65 -1 -29 -6 -58 -11 -65
-6 -7 -6 -18 0 -30 5 -10 10 -51 10 -92 0 -65 2 -77 22 -93 19 -15 19 -18 5
-18 -16 0 -16 -2 -1 -25 10 -14 16 -34 14 -43 -1 -9 1 -23 6 -30 5 -9 2 -15
-12 -19 -15 -4 -22 -16 -26 -51 -6 -47 -8 -182 -5 -279 2 -28 -3 -76 -10 -106
-10 -40 -11 -59 -2 -74 20 -39 4 -328 -21 -377 -7 -13 -6 -21 1 -26 7 -3 13
-40 15 -81 2 -41 8 -99 12 -129 4 -30 7 -59 5 -64 -1 -6 -4 -98 -7 -205 -2
-108 -8 -212 -12 -231 -5 -23 -4 -46 4 -65 7 -17 12 -62 12 -100 0 -39 6 -84
13 -101 11 -27 10 -36 -8 -70 -19 -38 -20 -47 -15 -191 1 -28 8 -58 15 -65 16
-17 20 -107 4 -122 -9 -9 -11 -80 -9 -277 1 -145 2 -297 2 -338 0 -40 4 -79
10 -86 8 -10 8 -19 1 -34 -6 -11 -11 -37 -10 -58 0 -21 3 -32 6 -26 3 10 8 9
19 -2 14 -13 19 -13 44 0 45 23 70 4 68 -52 -2 -24 -6 -43 -11 -43 -5 0 -22
-9 -38 -21 -21 -15 -29 -17 -31 -7 0 7 -2 18 -3 23 -2 6 -3 26 -4 45 -1 24 -4
31 -10 21 -5 -8 -16 -11 -25 -8 -8 3 -18 3 -20 -2 -11 -18 -15 -215 -5 -227 9
-11 8 -68 -2 -129 -1 -5 1 -35 5 -65 5 -52 -4 -160 -20 -223 -4 -19 -1 -33 10
-46 19 -21 14 -83 -9 -111 -21 -26 -23 -44 -8 -80 10 -25 14 -71 13 -160 -3
-235 -2 -335 4 -490 6 -140 9 -323 6 -342 -1 -5 -2 -49 -2 -100 0 -69 3 -94
14 -102 8 -6 13 -17 11 -23 -3 -7 2 -13 11 -13 9 0 16 -4 16 -10 0 -5 -4 -10
-10 -10 -13 0 -31 -37 -34 -69 -1 -15 -12 -40 -24 -56 -30 -37 -27 -106 5
-154 15 -22 21 -41 16 -50 -7 -16 -9 -62 -5 -151 1 -25 0 -61 -2 -80 -2 -19
-4 -41 -5 -48 0 -7 -7 -12 -13 -11 -28 3 -38 -2 -38 -20 0 -14 8 -21 28 -23
35 -4 40 -35 12 -71 -18 -23 -25 -25 -41 -16 -12 6 -27 8 -35 5 -19 -7 -18
-46 1 -46 8 0 15 -6 16 -12 0 -7 4 -3 9 10 10 23 25 29 35 13 11 -19 15 -250
4 -256 -6 -5 -7 -11 0 -19 5 -6 9 -35 7 -64 -1 -29 1 -52 5 -52 3 0 4 -11 2
-25 -5 -21 -7 -22 -20 -10 -8 8 -18 15 -23 15 -4 0 -4 15 0 34 6 27 4 36 -8
41 -13 5 -12 9 7 28 25 27 27 37 6 37 -15 0 -16 6 -20 135 0 17 3 36 8 42 12
17 -20 30 -36 14 -8 -8 -8 -23 1 -58 8 -32 9 -72 4 -121 -6 -53 -5 -83 6 -113
9 -28 10 -45 4 -51 -15 -15 -3 -127 17 -163 26 -48 29 -68 14 -104 -7 -18 -13
-43 -13 -55 0 -12 -5 -27 -11 -33 -6 -6 -8 -16 -5 -22 9 -15 39 -14 54 1 9 9
12 7 12 -9 0 -12 -5 -23 -10 -25 -7 -2 -4 -16 6 -37 30 -60 26 -239 -7 -304
-6 -11 -5 -25 1 -38 6 -11 13 -64 15 -117 3 -53 7 -145 9 -204 4 -95 3 -110
-14 -131 -19 -24 -19 -25 -1 -30 17 -4 18 -10 11 -43 -5 -21 -14 -40 -19 -42
-16 -5 -13 -101 4 -157 8 -27 12 -51 10 -54 -2 -3 3 -29 10 -56 11 -43 11 -75
2 -170 -1 -11 -12 -33 -24 -49 -12 -15 -25 -44 -29 -64 -6 -31 -3 -39 22 -62
33 -30 35 -39 33 -135 0 -38 -1 -74 0 -80 0 -5 3 -85 5 -176 3 -91 6 -170 7
-175 7 -22 -13 -220 -23 -232 -8 -9 -8 -23 1 -51 6 -21 11 -76 11 -122 0 -53
5 -94 14 -111 13 -24 20 -212 17 -462 0 -16 -8 -40 -17 -54 -16 -24 -16 -26 3
-42 19 -15 28 -65 14 -74 -6 -4 -6 -195 -1 -706 1 -96 6 -249 11 -340 6 -91
10 -248 11 -350 0 -121 5 -199 13 -225 14 -42 13 -62 -4 -190 -11 -82 -9 -513
2 -532 10 -17 17 -113 8 -113 -4 0 -8 -21 -8 -47 -1 -27 -1 -77 -2 -113 0 -36
0 -101 1 -145 1 -44 1 -102 -2 -128 -2 -32 1 -51 9 -57 10 -5 11 -19 5 -51 -5
-24 -8 -51 -6 -59 1 -8 4 -132 6 -275 3 -143 8 -276 11 -296 3 -20 1 -65 -6
-100 -6 -35 -13 -77 -16 -94 -3 -16 -17 -42 -31 -57 -32 -35 -34 -81 -4 -109
23 -20 29 -39 13 -39 -5 0 -12 -7 -15 -15 -4 -11 3 -19 19 -25 14 -5 25 -15
26 -22 1 -7 2 -26 3 -41 2 -16 -2 -43 -8 -61 -14 -41 -12 -488 3 -535 7 -23 7
-39 0 -53 -14 -25 -16 -196 -4 -268 6 -30 10 -90 10 -133 0 -42 4 -77 8 -77 5
0 6 -60 4 -133 -2 -72 0 -163 4 -202 15 -123 20 -198 20 -295 -3 -308 -3 -367
-2 -382 1 -17 245 -18 4976 -18 l4975 0 2 23 c0 12 1 29 0 37 -3 43 -2 238 3
515 3 171 6 321 5 335 -2 197 3 370 15 455 5 33 9 83 9 110 1 28 4 55 9 61 4
7 4 38 1 70 -3 33 -7 102 -8 154 0 52 -5 101 -9 108 -5 7 -4 12 2 12 6 0 11 9
11 19 0 11 4 22 8 25 10 6 9 337 -1 353 -4 7 -5 27 -2 45 3 18 8 152 10 298 2
146 7 275 10 286 4 12 3 24 -2 27 -6 4 -4 36 4 79 7 40 10 85 7 99 -10 52 -6
420 5 438 4 6 5 31 1 54 -7 52 2 100 24 122 21 22 20 34 -4 60 -17 18 -19 27
-10 49 5 14 7 53 3 86 -4 39 -2 60 5 60 11 0 10 13 -3 43 -4 9 -4 27 -1 40 13
42 19 364 7 371 -14 9 -14 83 0 92 8 4 10 26 6 63 -4 40 -2 61 9 75 12 17 12
23 1 40 -9 13 -14 54 -14 111 -1 52 -5 91 -11 93 -6 2 -1 22 14 49 25 48 32
111 13 130 -13 13 17 112 37 120 20 7 28 67 14 108 -9 27 -9 40 -1 48 17 17
13 78 -6 93 -17 13 -16 15 6 33 l25 19 1 263 c0 145 4 270 9 277 5 9 1 24 -13
43 -26 35 -26 37 0 65 23 25 22 14 34 319 3 77 8 169 10 205 3 61 -13 139 -35
165 -5 6 -1 27 10 50 11 22 19 60 19 85 0 50 24 216 35 240 4 10 -4 27 -22 45
-28 28 -38 74 -32 145 1 8 2 47 4 87 1 43 10 89 21 112 14 32 15 44 6 55 -8
10 -9 16 -1 21 6 3 7 12 3 18 -4 7 -11 41 -15 77 -3 36 -9 90 -13 120 -7 63
-7 76 -2 110 2 14 -1 32 -7 40 -5 8 -7 12 -2 8 5 -4 17 -3 28 3 17 9 19 19 15
87 -3 44 0 83 6 93 7 11 7 48 -1 120 -16 144 -18 157 -32 214 -6 28 -13 61
-15 75 -2 14 -4 25 -5 25 -1 0 -3 8 -5 18 -2 12 6 22 23 30 48 21 51 31 50
207 0 91 3 235 7 320 4 85 8 224 9 308 1 117 5 155 15 161 9 6 12 18 7 37 -18
73 -21 137 -9 230 7 54 10 106 6 114 -12 28 -23 459 -11 466 3 2 4 21 2 42 -5
44 -5 40 -1 122 2 36 -1 71 -6 77 -5 7 -6 33 -2 60 5 27 7 75 6 108 -4 75 -4
142 -1 175 1 14 0 75 -4 135 -3 61 -8 168 -12 240 -3 71 -10 138 -16 148 -7
14 -7 22 3 28 10 6 14 36 15 108 0 66 5 105 14 116 10 13 10 18 -2 33 -14 16
-17 90 -3 111 3 5 1 21 -5 35 -5 14 -6 27 -2 30 4 2 7 36 7 75 0 39 3 71 7 71
11 0 10 38 0 44 -6 4 -8 221 -2 221 1 0 3 43 4 96 2 52 9 105 15 117 13 24 5
95 -10 86 -5 -3 -9 0 -9 5 0 6 3 11 8 11 6 0 10 48 11 160 1 19 -1 186 -4 370
-3 184 -5 387 -5 450 0 63 0 133 -1 155 -1 22 -1 49 -1 60 5 121 -3 510 -11
522 -4 7 -3 14 3 18 6 4 9 66 9 158 -1 84 2 170 6 192 5 32 4 37 -5 25 -10
-12 -11 -12 -4 5 15 40 14 163 -2 176 -10 8 -11 15 -3 25 13 16 20 204 7 204
-5 0 -4 8 1 19 6 10 8 21 5 23 -7 8 -15 922 -19 2218 -5 1842 -5 2112 -6 3275
0 594 0 1176 0 1293 0 117 3 218 7 224 4 6 6 34 5 62 -2 43 0 48 13 37 8 -7
15 -16 14 -19 -1 -4 4 -27 12 -52 7 -25 14 -53 15 -62 0 -10 10 -26 20 -38 10
-11 15 -20 10 -20 -4 0 -3 -6 3 -12 23 -28 15 -253 -10 -285 -11 -14 -12 -148
-4 -448 8 -254 8 -360 0 -465 -3 -41 -7 -120 -8 -175 -2 -55 -7 -115 -11 -133
-4 -19 -3 -63 3 -100 18 -108 29 -333 21 -402 -5 -41 -4 -75 2 -92 7 -18 7
-32 0 -46 -7 -13 -7 -31 1 -58 13 -47 13 -165 0 -191 -6 -12 -6 -27 1 -43 15
-38 16 -50 7 -76 -6 -15 -6 -24 0 -24 6 0 10 -7 10 -15 0 -8 -5 -15 -10 -15
-7 0 -7 -7 0 -20 8 -16 8 -20 -2 -18 -16 4 -12 -31 6 -52 7 -8 16 -23 19 -32
9 -24 21 -23 52 6 24 22 25 29 20 82 -3 33 -8 67 -11 77 -3 9 0 17 7 17 9 0 9
3 0 14 -9 10 -8 15 4 20 21 8 19 23 -5 31 -20 6 -20 7 1 24 20 16 20 18 5 34
-16 16 -16 18 8 28 19 9 23 16 16 24 -6 7 -7 26 -4 43 4 22 1 40 -11 58 -16
24 -16 28 -1 42 13 14 20 14 36 4 17 -10 20 -10 20 3 0 8 -9 15 -20 15 -23 0
-27 28 -5 36 8 4 23 3 33 -1 16 -8 16 -8 -2 -13 -13 -3 -15 -6 -7 -12 15 -8
22 -61 11 -75 -20 -25 -27 -103 -11 -115 7 -5 9 -20 11 -93 1 -22 5 -50 11
-64 6 -16 5 -31 -2 -45 -8 -14 -8 -23 0 -31 14 -14 14 -72 0 -99 -9 -17 -8
-23 6 -30 15 -9 15 -11 -1 -29 -9 -10 -14 -19 -9 -19 4 0 -4 -10 -19 -21 -26
-20 -26 -22 -9 -39 10 -9 26 -15 36 -12 9 2 17 -1 17 -7 0 -6 -7 -11 -15 -11
-18 0 -20 -26 -2 -34 10 -5 10 -7 0 -12 -15 -7 -18 -74 -3 -74 20 0 9 -31 -15
-42 -31 -14 -33 -29 -2 -25 18 2 23 -4 25 -29 2 -20 -3 -38 -15 -50 -13 -12
-18 -34 -19 -71 0 -57 -8 -73 -25 -56 -8 8 -7 13 1 18 14 8 -16 45 -37 45 -15
0 -17 -16 -3 -25 6 -3 10 -12 10 -18 0 -7 -4 -6 -10 3 -9 13 -12 12 -25 -4 -8
-11 -15 -26 -15 -33 0 -7 -8 -13 -19 -13 -22 0 -32 -30 -18 -55 6 -11 6 -16 0
-12 -6 4 -8 -12 -5 -41 2 -26 0 -64 -6 -85 -6 -20 -7 -39 -3 -42 5 -2 6 -17 3
-31 -3 -15 -1 -24 4 -21 5 3 9 -21 9 -54 0 -38 -5 -63 -13 -68 -9 -6 -12 -28
-8 -80 3 -55 1 -75 -11 -87 -14 -14 -13 -16 7 -21 15 -4 18 -8 9 -13 -9 -6 -9
-15 -1 -39 6 -17 7 -33 3 -35 -11 -7 -3 -149 9 -156 6 -4 0 -18 -15 -34 -14
-15 -25 -30 -25 -33 0 -3 12 -17 27 -30 24 -23 25 -26 9 -35 -16 -9 -16 -11
-1 -28 11 -12 13 -20 6 -25 -6 -3 -11 -20 -10 -38 0 -18 -1 -43 -3 -57 -2 -19
1 -24 15 -22 9 2 17 -2 17 -8 0 -5 -6 -10 -12 -10 -7 0 -5 -5 5 -11 18 -11 18
-12 -1 -32 -11 -12 -24 -35 -27 -50 -7 -26 -6 -28 21 -24 31 4 64 -11 64 -29
0 -6 7 -17 16 -25 13 -10 17 -10 25 2 16 25 11 41 -11 34 -16 -5 -20 -2 -20
14 0 12 4 21 10 21 17 0 3 90 -19 120 -22 31 -27 50 -12 50 5 0 11 -10 15 -22
4 -18 8 -20 18 -10 9 9 9 15 0 24 -17 17 -15 47 3 54 17 7 21 44 5 44 -5 0
-10 -6 -10 -12 0 -8 -3 -9 -8 -3 -4 6 -18 16 -32 22 l-25 12 25 2 c14 1 28 1
32 0 16 -2 29 39 19 58 -6 10 -7 21 -4 25 3 3 1 6 -6 6 -7 0 -9 5 -4 13 4 6 8
14 9 17 0 3 4 13 8 23 5 10 3 23 -3 31 -6 7 -9 21 -5 30 4 10 1 16 -7 16 -11
0 -11 2 0 9 12 8 13 14 3 36 -8 18 -9 32 -2 45 6 10 6 21 1 24 -13 8 -20 -4
-14 -21 4 -10 2 -14 -6 -12 -31 11 -12 199 20 199 15 0 10 30 -6 36 -8 4 -12
10 -9 15 3 5 0 9 -5 9 -6 0 -11 5 -11 11 0 6 7 9 15 6 21 -9 28 10 8 22 -10 6
-14 11 -9 11 5 0 3 6 -3 13 -8 10 -4 20 17 40 24 23 28 34 26 77 -2 37 2 52
14 60 12 8 13 10 2 7 -19 -5 -45 42 -30 57 13 13 13 49 -1 63 -8 8 -6 17 7 32
19 22 43 28 45 11 2 -15 4 -22 17 -53 11 -27 9 -200 -4 -239 -3 -11 -2 -24 3
-31 10 -15 10 -38 0 -54 -4 -7 -4 -21 1 -30 4 -10 8 -47 7 -83 -1 -59 6 -79
28 -80 4 0 7 15 7 33 0 17 5 50 10 72 7 31 6 43 -7 57 -11 12 -13 26 -8 45 4
15 8 82 9 148 1 66 5 125 9 132 4 6 4 22 -1 35 -9 29 -9 49 2 66 5 8 4 18 -2
24 -8 8 -8 17 -1 31 8 13 8 22 0 30 -17 17 -13 58 7 73 14 10 15 15 5 25 -17
17 -16 29 2 29 8 0 14 6 13 13 -2 8 7 11 26 9 25 -3 28 -1 17 11 -6 8 -21 13
-31 10 -14 -4 -20 0 -20 11 0 10 4 14 10 11 13 -8 0 28 -14 37 -6 4 -1 14 13
26 23 18 23 19 6 45 -9 15 -22 27 -27 27 -6 0 -5 7 3 16 12 14 14 14 25 -1 11
-15 15 -15 48 -1 24 10 38 11 42 4 7 -11 -16 -29 -28 -22 -4 3 -16 0 -25 -5
-15 -8 -11 -10 20 -11 36 0 37 -1 37 -35 0 -24 5 -35 15 -35 9 0 15 -9 15 -25
0 -14 3 -25 8 -25 4 0 8 -11 8 -25 2 -22 -2 -25 -32 -25 l-34 0 20 -20 c11
-11 24 -20 30 -20 13 0 43 -47 36 -58 -3 -5 -7 -22 -10 -38 -5 -24 -1 -33 22
-47 l27 -16 -27 -1 c-16 0 -28 -4 -28 -10 0 -5 9 -10 20 -10 22 0 26 -10 10
-26 -8 -8 -2 -11 20 -12 17 0 28 3 25 8 -3 5 11 10 32 12 35 3 38 6 45 42 5
22 15 47 22 55 8 10 13 32 11 56 -2 22 1 45 6 51 7 9 6 19 -3 34 -9 14 -10 23
-2 28 20 14 45 81 38 106 -5 21 1 32 31 61 30 28 34 36 21 41 -11 4 -14 13
-10 29 3 13 -1 28 -11 38 -12 13 -14 21 -5 37 6 11 15 20 19 20 5 0 8 11 7 23
-1 17 -6 23 -17 20 -23 -6 -34 14 -18 34 11 13 10 17 -5 29 -15 10 -19 28 -20
84 -1 53 2 69 11 65 7 -2 13 2 13 9 0 8 -5 16 -12 18 -8 3 -12 34 -12 94 -1
72 2 89 14 89 17 1 15 26 -3 37 -30 19 -35 24 -39 43 -2 12 2 19 10 17 6 -1
12 2 12 8 0 5 -4 10 -9 10 -5 0 -8 19 -7 42 2 31 7 44 19 46 22 4 22 9 -8 44
-14 16 -25 39 -26 51 0 12 -2 33 -4 47 -2 14 -5 73 -7 132 -1 60 -7 108 -12
108 -5 0 -4 6 1 13 12 15 5 97 -9 97 -5 0 -6 5 -3 10 4 6 11 8 16 5 5 -4 10 4
10 17 1 13 3 37 4 53 1 17 -2 36 -8 42 -5 7 -6 21 -2 30 10 25 8 148 -3 187
-10 34 -15 78 -13 116 0 14 1 38 1 54 0 16 5 35 11 42 7 9 7 24 1 48 -6 19 -8
37 -4 40 10 11 20 101 11 112 -10 12 -6 79 6 107 4 10 2 23 -5 32 -7 9 -10 18
-7 21 3 3 2 17 -3 30 -6 16 -6 24 1 24 6 0 6 7 -1 19 -7 14 -7 22 1 26 6 4 7
14 4 24 -4 9 -8 28 -9 43 -2 20 2 25 16 23 25 -5 22 5 -11 41 l-30 31 24 48
c23 44 23 49 9 76 -8 16 -11 29 -7 29 10 0 10 81 -1 98 -8 14 11 79 32 104 12
14 11 19 -7 37 -26 26 -26 37 -4 45 15 6 15 9 3 16 -8 5 -18 6 -23 3 -5 -3 -1
6 8 21 11 16 15 35 11 50 -3 14 -1 28 5 32 8 5 8 9 -1 14 -7 4 -10 15 -7 25 4
9 11 13 17 10 6 -3 7 1 4 9 -3 9 -1 17 5 17 25 3 30 4 36 10 3 4 -12 9 -34 13
-30 5 -39 10 -35 21 4 8 12 15 20 15 8 0 14 5 14 10 0 6 -4 10 -10 10 -5 0
-10 11 -10 24 0 14 -5 28 -10 31 -6 4 -3 17 10 35 11 15 20 33 20 39 0 6 6 11
13 11 6 1 1 10 -12 20 -18 16 -21 23 -12 34 8 10 9 16 1 21 -7 4 -6 11 3 19 7
7 12 30 12 50 -1 20 2 36 7 36 4 0 8 5 8 10 0 7 -1836 10 -5487 10 l-5488 0 0
-47z m10503 -833 c12 -11 19 -27 16 -34 -3 -8 -1 -23 5 -34 6 -12 7 -22 0 -29
-5 -5 -11 -41 -14 -79 -2 -38 -5 -70 -6 -71 -2 -4 -8 -52 -11 -94 -4 -40 -30
-55 -52 -30 -10 11 -13 22 -8 25 6 3 8 15 5 25 -3 11 3 27 14 38 21 21 25 63
7 63 -14 0 -24 44 -13 61 4 7 4 22 -1 34 -4 11 -4 28 1 37 5 9 11 36 13 60 2
24 4 44 5 46 3 7 20 0 39 -18z m-5 -942 c4 -12 1 -28 -5 -35 -8 -10 -7 -18 6
-31 9 -10 16 -23 16 -28 0 -5 -4 -4 -8 3 -4 7 -17 10 -30 6 -12 -3 -19 -9 -17
-14 3 -4 13 -5 22 -2 13 5 15 2 11 -15 -4 -12 -2 -25 3 -28 18 -10 10 -36 -9
-30 -12 4 -19 1 -19 -8 0 -8 5 -14 11 -13 6 1 10 -4 8 -12 -2 -7 4 -21 13 -31
14 -15 14 -18 0 -30 -18 -15 -19 -43 -4 -71 7 -15 7 -24 -1 -34 -7 -8 -9 -19
-6 -24 4 -6 -2 -15 -13 -21 -23 -12 -36 1 -27 26 3 8 -4 24 -15 35 -15 15 -19
28 -15 45 4 14 11 22 16 19 6 -4 9 31 7 91 -2 64 -8 99 -15 102 -16 5 -15 39
1 46 10 5 10 7 0 12 -7 3 -13 16 -13 29 0 18 4 22 19 18 10 -3 22 0 25 6 12
18 33 12 39 -11z m267 -144 c0 -11 -29 -34 -42 -34 -10 -1 -9 -4 2 -13 8 -7
16 -23 18 -37 1 -13 8 -28 15 -32 8 -5 2 -17 -21 -41 -17 -18 -32 -36 -32 -40
0 -13 23 -7 35 10 9 13 14 13 20 3 5 -8 4 -11 -2 -7 -11 7 -33 -33 -33 -58 0
-8 -7 -15 -16 -15 -8 0 -12 -4 -9 -10 3 -5 -1 -10 -10 -10 -11 0 -15 5 -11 15
3 8 0 16 -7 17 -7 0 -17 2 -22 2 -6 1 -21 10 -35 20 -14 10 -17 16 -8 13 17
-6 28 11 28 44 0 10 6 19 13 19 19 0 41 40 28 53 -20 20 -13 57 9 57 12 0 20
6 19 13 -3 27 2 34 31 35 17 0 30 -2 30 -4z m-4627 -2034 c93 -21 91 -35 -7
-55 -27 -6 -27 -7 -10 -20 10 -7 22 -11 26 -9 14 9 85 -35 103 -62 l18 -27
-74 6 c-70 6 -215 37 -269 57 -14 5 -50 12 -80 15 -30 3 -58 9 -62 13 -4 4 2
29 15 55 l22 48 125 -3 c69 -1 156 -9 193 -18z m-223 -174 c107 -13 139 -19
134 -27 -3 -5 13 -9 35 -9 22 0 42 -4 46 -10 3 -5 12 -7 20 -3 8 3 15 0 15 -6
0 -6 8 -11 17 -11 35 0 133 -45 133 -60 0 -26 -62 -77 -115 -95 -114 -39 -162
-47 -280 -46 -136 0 -145 5 -145 77 0 37 -2 42 -20 37 -42 -11 -59 29 -44 105
6 27 10 30 33 26 19 -4 32 1 49 19 21 22 28 24 60 15 20 -5 48 -10 62 -12z
m-1523 -5322 c13 -4 20 -10 17 -15 -3 -5 2 -9 10 -9 9 0 16 -4 16 -10 0 -5 6
-10 14 -10 10 0 16 -18 20 -57 15 -137 6 -165 -60 -177 -46 -9 -85 11 -105 53
-9 19 -23 39 -33 46 -9 7 -20 34 -25 59 -8 43 -6 52 17 87 23 35 30 39 66 39
23 0 51 -3 63 -6z m3206 -528 c42 -19 -1 -125 -49 -118 -26 4 -74 -14 -74 -28
0 -13 27 -13 32 -1 4 12 79 17 96 7 7 -4 17 -16 22 -27 9 -16 7 -21 -17 -31
-37 -15 -60 -11 -85 14 -11 11 -26 17 -34 14 -8 -3 -14 -1 -14 3 0 17 -38 -1
-43 -19 -7 -27 -57 -38 -72 -16 -7 9 -20 16 -29 16 -24 0 -20 25 7 38 12 7 47
16 77 21 30 5 44 9 30 10 -14 1 -32 6 -40 12 -13 9 -13 10 1 6 9 -3 27 2 39
10 12 9 32 16 43 17 12 1 21 9 23 21 8 56 37 73 87 51z m-2544 -142 c2 -2 -2
-12 -10 -21 -13 -16 -12 -17 3 -4 15 11 19 11 24 -2 5 -13 9 -14 24 -5 12 8
25 9 40 2 18 -8 19 -11 7 -28 -8 -10 -26 -19 -41 -20 -19 -1 -32 -10 -44 -31
-9 -16 -20 -31 -24 -33 -5 -2 -8 -12 -8 -23 0 -10 -4 -19 -10 -19 -15 0 -56
-46 -52 -58 5 -17 -17 -52 -33 -52 -7 0 -28 20 -46 44 -23 33 -44 49 -80 62
-27 10 -49 21 -49 25 0 13 42 38 54 33 9 -4 12 10 9 48 -2 45 1 56 19 69 21
16 20 16 -16 23 -20 4 -34 11 -31 17 8 12 62 12 70 -1 5 -8 11 -7 21 1 32 27
77 27 124 1 25 -14 47 -26 49 -28z m1143 -11 c16 -14 20 -14 42 1 37 24 61 20
90 -14 31 -38 25 -57 -22 -70 -51 -14 -60 -13 -74 10 -15 24 -31 25 -48 5 -17
-20 -89 -20 -97 1 -3 8 -12 13 -19 10 -18 -7 -18 11 -1 21 8 4 22 21 32 36 15
24 22 27 49 21 17 -3 39 -13 48 -21z"/>
<path d="M18946 23004 c1 -21 7 -40 11 -43 12 -8 8 -174 -5 -230 -6 -25 -7
-52 -3 -60 4 -9 6 -34 5 -56 -7 -95 -5 -185 4 -201 7 -12 7 -25 0 -37 -8 -15
-5 -20 11 -24 19 -5 19 -5 1 -36 -17 -28 -18 -32 -3 -42 14 -10 14 -19 5 -55
-8 -33 -7 -51 4 -83 8 -23 12 -47 10 -54 -3 -7 -2 -13 2 -13 11 0 7 -83 -5
-87 -12 -4 -5 -53 8 -53 4 0 13 -9 19 -21 10 -17 9 -20 -6 -17 -15 3 -18 -4
-15 -45 1 -26 -3 -63 -9 -81 -9 -28 -8 -44 4 -78 8 -24 13 -70 12 -102 -2 -40
2 -60 11 -63 9 -4 10 -10 2 -24 -11 -22 -12 -58 -4 -249 2 -36 4 -100 4 -142
1 -43 5 -88 11 -102 7 -20 6 -24 -4 -20 -21 8 -30 -15 -13 -34 12 -13 13 -22
5 -35 -5 -10 -6 -26 -2 -35 4 -9 6 -21 4 -27 -5 -19 1 -188 7 -199 12 -18 10
-60 -4 -100 -7 -21 -11 -42 -8 -46 3 -5 1 -11 -3 -14 -5 -3 -6 -29 -2 -58 4
-30 6 -71 4 -91 -3 -21 2 -49 11 -66 10 -21 12 -32 4 -37 -6 -3 -9 -20 -6 -37
2 -19 -1 -37 -9 -45 -8 -7 -17 -25 -20 -40 -9 -45 -38 -97 -54 -97 -9 0 -15
-10 -16 -23 -2 -28 27 -46 45 -29 10 9 12 8 9 -8 -2 -11 9 -32 24 -48 21 -24
25 -34 18 -53 -7 -17 -5 -28 5 -38 19 -19 19 -33 0 -43 -16 -9 -17 -19 -10
-133 3 -41 0 -90 -6 -108 -8 -24 -8 -36 1 -47 9 -10 9 -19 2 -27 -5 -7 -10
-32 -10 -55 -1 -23 -5 -50 -10 -60 -9 -18 2 -175 13 -193 3 -5 -1 -21 -10 -34
-9 -14 -14 -33 -11 -43 3 -10 8 -32 11 -48 2 -17 9 -52 15 -79 5 -28 7 -77 4
-110 -10 -91 -10 -299 -1 -396 5 -47 9 -118 9 -157 1 -43 5 -73 11 -73 6 0 2
-9 -9 -21 -17 -19 -19 -39 -21 -173 -1 -83 -2 -153 -4 -156 -1 -3 -2 -95 -3
-204 -1 -155 -4 -200 -14 -204 -7 -2 -16 5 -19 17 -6 24 -31 28 -39 6 -4 -8
-3 -23 2 -32 4 -10 6 -42 5 -71 -3 -51 -2 -54 18 -47 17 5 23 1 31 -20 19 -49
13 -75 -19 -86 -47 -17 -54 -65 -7 -53 34 8 46 -13 36 -66 -12 -69 -3 -283 13
-307 12 -19 -15 -68 -38 -68 -15 0 -20 -7 -21 -32 -1 -18 -4 -39 -7 -47 -3 -8
2 -16 14 -19 12 -3 17 -1 12 5 -3 6 -6 26 -7 45 -1 28 2 33 19 31 13 -2 21
-12 23 -30 2 -16 -1 -28 -5 -28 -5 0 -6 -37 -2 -82 4 -44 4 -103 0 -130 -5
-27 -5 -51 -1 -53 15 -9 17 -67 3 -81 -17 -17 -12 -229 6 -263 7 -13 8 -28 3
-38 -4 -10 -7 -24 -6 -30 1 -7 2 -20 3 -28 0 -8 7 -15 15 -15 11 0 10 -8 -5
-39 -14 -31 -17 -46 -9 -65 5 -14 7 -26 4 -26 -4 0 -1 -6 5 -14 10 -12 9 -17
-6 -24 -17 -9 -18 -18 -10 -94 5 -45 15 -104 22 -130 12 -40 12 -55 1 -91 -9
-30 -10 -51 -3 -68 5 -13 11 -145 13 -294 2 -148 4 -283 5 -300 1 -16 -3 -43
-9 -58 -7 -15 -9 -46 -7 -69 3 -22 7 -66 9 -97 2 -31 7 -68 11 -82 4 -17 1
-30 -9 -38 -11 -10 -12 -18 -4 -42 6 -17 8 -50 5 -74 -4 -24 -3 -45 2 -47 4
-2 4 -30 -1 -63 -4 -33 -8 -67 -8 -75 1 -8 1 -35 1 -59 0 -25 5 -53 10 -63 7
-14 6 -20 -5 -24 -12 -5 -15 -21 -14 -72 1 -37 6 -73 11 -80 17 -22 13 -358
-5 -404 -6 -16 -7 -35 -2 -45 4 -10 9 -40 10 -68 1 -27 6 -115 10 -195 5 -113
8 -665 4 -715 -1 -5 2 -199 5 -430 4 -231 7 -546 6 -700 0 -154 -1 -334 -1
-400 1 -66 1 -129 1 -140 0 -11 0 -90 -1 -175 0 -85 2 -200 6 -255 4 -55 8
-134 9 -175 1 -41 6 -113 10 -160 4 -47 7 -94 7 -105 -1 -10 4 -25 10 -32 6
-7 8 -26 5 -42 -3 -16 -2 -44 3 -62 5 -19 11 -52 14 -74 9 -75 27 -170 36
-190 8 -19 27 -168 28 -225 2 -95 10 -144 25 -155 9 -7 17 -17 17 -23 0 -6 5
-12 10 -14 6 -2 17 -26 24 -53 7 -28 28 -80 45 -117 17 -36 31 -73 31 -82 0
-9 5 -16 10 -16 6 0 10 -8 10 -18 0 -11 8 -34 17 -53 9 -19 18 -41 19 -49 2
-26 85 -207 102 -226 9 -11 23 -31 31 -46 8 -15 22 -37 33 -47 10 -11 18 -23
18 -27 0 -3 9 -18 21 -32 17 -23 20 -35 14 -79 -3 -29 -3 -58 1 -64 13 -22 10
-124 -7 -174 -9 -27 -17 -84 -18 -125 -1 -41 -4 -82 -7 -91 -2 -9 2 -32 11
-52 18 -44 62 -58 102 -31 26 16 27 16 45 -6 40 -50 69 3 73 133 1 50 7 93 14
100 7 7 11 7 11 0 0 -5 26 -29 58 -51 57 -40 102 -88 115 -125 4 -10 23 -25
43 -33 20 -8 34 -18 30 -21 -6 -6 32 -43 44 -43 11 0 80 -65 80 -76 0 -18 35
-44 58 -44 12 0 22 -4 22 -8 0 -4 42 -44 93 -88 50 -43 100 -89 110 -101 10
-13 34 -30 54 -39 19 -10 49 -32 67 -49 17 -18 54 -45 83 -59 28 -15 57 -34
64 -42 6 -8 16 -14 22 -14 6 0 20 -9 31 -19 12 -10 37 -28 56 -38 19 -11 62
-35 95 -53 33 -18 67 -39 75 -46 15 -12 153 -64 178 -66 6 -1 12 -5 12 -9 0
-4 24 -15 53 -25 28 -9 94 -34 145 -56 51 -22 102 -40 115 -40 12 -1 27 -5 32
-8 6 -4 33 -13 60 -19 28 -7 73 -21 100 -31 44 -17 223 -56 369 -81 26 -4 62
-13 80 -18 17 -6 54 -10 81 -10 28 1 77 -4 110 -9 33 -6 96 -11 140 -10 44 0
127 -3 185 -7 58 -4 229 -10 380 -13 151 -2 292 -5 312 -5 22 -1 33 -4 25 -9
-7 -4 3 -8 24 -8 19 0 40 5 47 12 9 9 17 8 37 -2 20 -11 30 -11 52 -1 20 9 28
9 33 0 4 -6 25 -11 46 -10 75 2 239 16 239 20 0 1 547 2 605 0 21 0 138 5 285
13 17 1 57 0 90 -1 79 -3 91 -2 150 14 28 7 112 18 189 24 76 7 150 18 165 25
14 8 46 17 71 20 42 7 61 12 115 31 11 4 38 8 60 9 25 2 39 7 38 14 -2 7 4 12
12 12 8 0 15 -4 15 -10 0 -16 26 -11 44 9 24 27 63 23 87 -8 21 -25 21 -32 14
-246 -4 -121 -9 -240 -11 -265 -10 -136 -16 -332 -19 -640 -2 -190 -4 -349 -5
-355 -1 -5 -2 -12 -1 -15 2 -8 14 -989 13 -1040 -1 -25 -1 -157 -1 -295 0
-364 8 -505 29 -545 6 -10 10 -27 10 -37 0 -26 142 -161 202 -192 85 -43 88
-45 88 -53 0 -5 9 -8 19 -8 11 0 22 -4 25 -9 3 -4 27 -14 53 -21 27 -8 62 -24
78 -38 57 -46 58 -54 56 -322 0 -135 -3 -283 -5 -330 -3 -47 -5 -92 -5 -100 0
-8 1 -92 3 -186 3 -265 -11 -510 -32 -534 -9 -11 -24 -20 -34 -20 -9 0 -19 -4
-22 -8 -8 -13 24 -53 36 -46 7 5 9 -2 4 -19 -3 -14 -2 -28 3 -31 17 -11 22
-75 21 -271 0 -110 0 -211 1 -225 3 -33 3 -91 -2 -288 -3 -90 -3 -165 -1 -167
3 -2 5 -23 6 -47 3 -45 -34 -121 -64 -132 -21 -8 -84 -47 -90 -56 -3 -4 -23
-16 -45 -28 -38 -19 -145 -118 -145 -134 0 -5 1067 -8 2370 -8 l2370 0 -2
1350 c-3 1188 -5 1352 -18 1360 -8 6 -20 8 -27 6 -6 -3 -14 2 -17 9 -6 18 30
40 39 25 19 -30 24 7 24 170 0 99 -3 180 -7 180 -4 0 -13 -13 -20 -30 -15 -34
-24 -37 -46 -15 -23 24 -28 1 -4 -25 l21 -22 -22 7 c-15 5 -23 2 -27 -12 -3
-10 -10 -26 -15 -36 -11 -20 4 -47 26 -47 7 0 18 -7 25 -15 15 -18 3 -40 -14
-26 -23 19 -41 -17 -23 -45 9 -16 -16 -36 -36 -28 -26 10 -26 -11 0 -34 24
-22 25 -22 20 -2 -6 22 12 27 30 9 8 -8 8 -20 1 -41 -9 -26 -13 -28 -41 -22
-29 6 -30 6 -13 -11 30 -31 -4 -120 -49 -127 -27 -4 -28 -51 -2 -56 15 -3 18
0 12 17 -5 16 -2 21 10 21 13 0 16 -6 11 -26 -6 -22 -4 -25 12 -20 25 8 52 -2
52 -20 0 -8 -10 -14 -24 -14 -34 0 -40 -14 -21 -51 16 -30 16 -32 -6 -56 -16
-16 -30 -22 -44 -19 -19 5 -21 2 -17 -23 3 -24 0 -29 -22 -35 -27 -7 -27 -36
0 -36 15 0 19 -16 5 -24 -4 -3 -5 -24 -1 -46 7 -39 7 -40 -18 -35 -31 5 -72
-4 -72 -16 0 -5 9 -9 21 -9 15 0 19 -4 15 -16 -4 -9 -1 -23 5 -30 9 -11 2 -18
-35 -34 -25 -10 -46 -25 -46 -32 0 -7 -3 -23 -6 -35 -5 -19 -2 -23 15 -23 11
0 21 -4 21 -10 0 -11 -40 -50 -52 -50 -4 0 -8 -5 -8 -10 0 -6 7 -10 17 -8 10
2 19 -7 24 -25 6 -21 3 -29 -11 -37 -15 -8 -21 -6 -30 10 -9 16 -8 20 5 20 8
0 15 5 15 10 0 15 -21 12 -42 -7 -10 -9 -18 -11 -18 -5 0 6 5 14 10 17 7 4 7
12 0 25 -14 25 -13 27 10 33 11 3 20 12 20 21 0 21 -43 21 -60 1 -12 -14 -15
-14 -31 1 -11 10 -19 23 -19 31 0 16 -14 17 -40 3 -15 -8 -24 -6 -40 10 -11
11 -18 21 -15 21 3 1 8 2 13 3 19 4 31 18 25 32 -4 10 -9 12 -18 4 -27 -23
-36 38 -9 65 17 17 36 80 26 89 -3 4 -13 6 -23 6 -10 0 -19 10 -21 25 -4 19
-1 25 13 25 19 0 26 24 11 34 -10 6 -8 99 2 114 3 5 -1 15 -9 22 -19 16 -20
76 -2 83 12 4 12 16 1 69 -8 34 -11 70 -8 78 4 8 8 42 9 74 2 42 8 62 19 68 9
5 16 18 16 28 0 11 10 25 23 31 39 20 72 63 71 92 -1 15 5 31 12 35 14 8 74
174 74 204 0 10 5 18 10 18 6 0 10 9 10 20 0 20 9 24 42 21 9 -1 21 7 27 17 9
17 16 18 63 10 29 -4 63 -6 76 -3 20 5 23 3 18 -13 -5 -15 -1 -21 19 -25 15
-2 32 1 40 9 17 18 25 18 25 0 0 -8 4 -16 10 -18 6 -2 4 -14 -4 -30 -13 -25
-13 -28 6 -33 11 -4 17 -13 14 -21 -3 -8 -1 -14 4 -14 7 0 10 463 10 1285 0
1136 -2 1285 -15 1285 -8 0 -15 7 -15 15 0 8 7 15 15 15 9 0 15 9 15 25 0 30
-11 32 -36 4 -10 -11 -26 -18 -36 -16 -10 3 -16 1 -13 -3 3 -5 1 -11 -5 -15
-5 -3 -10 -1 -10 4 0 16 -19 13 -37 -5 -14 -14 -18 -13 -42 9 -22 21 -54 28
-81 17 -3 -1 -11 -3 -19 -4 -8 0 -19 -16 -23 -34 -7 -27 -13 -32 -28 -27 -13
4 -20 2 -20 -6 0 -7 -3 -9 -7 -6 -3 4 -13 2 -20 -5 -19 -15 -37 10 -22 29 14
17 1 53 -19 53 -13 0 -13 -2 4 -15 19 -14 19 -14 -2 -15 -14 0 -27 11 -38 33
-8 17 -16 26 -16 18 0 -11 -4 -11 -18 2 -10 10 -28 17 -40 17 -24 0 -59 54
-42 65 6 3 10 17 10 31 0 13 9 32 21 42 11 9 26 31 34 47 19 39 27 122 14 130
-6 5 -5 15 5 30 8 12 12 32 9 43 -2 11 1 31 8 43 7 13 12 28 11 33 -4 12 36
92 54 106 7 7 14 21 14 31 0 10 8 33 18 51 10 18 17 38 15 45 -2 6 2 22 11 35
8 13 18 44 21 71 4 26 11 50 16 53 5 3 9 16 9 29 0 13 5 36 11 52 7 15 13 39
15 53 2 13 11 30 20 37 10 7 15 16 11 19 -3 3 0 23 7 43 34 90 60 189 59 223
0 22 5 39 13 42 8 3 11 12 8 20 -4 11 3 15 28 18 18 2 32 8 31 15 -3 14 24 26
32 14 3 -5 -2 -11 -10 -15 -8 -3 -15 -10 -15 -16 0 -7 6 -8 19 0 11 5 31 10
45 10 l26 0 0 256 c0 206 -3 258 -14 269 -12 12 -15 12 -20 -2 -4 -9 -1 -20 6
-25 9 -6 3 -8 -17 -5 -16 3 -39 0 -49 -5 -11 -6 -66 -11 -123 -10 -57 0 -103
-3 -103 -7 0 -4 -15 -6 -33 -6 -38 2 -97 33 -97 53 0 7 -3 11 -7 9 -8 -5 -8
74 -1 108 3 11 0 28 -6 37 -7 13 -7 26 1 47 7 20 7 33 0 40 -5 5 -6 18 -2 28
10 24 14 199 4 214 -4 7 0 19 8 27 10 10 13 25 8 48 -4 25 -2 35 12 43 16 8
16 10 2 16 -14 5 -23 51 -19 100 1 11 2 52 3 91 0 56 3 71 15 70 8 -1 17 5 19
12 3 6 -2 12 -11 12 -18 0 -21 15 -6 25 16 10 12 25 -6 25 -13 0 -14 3 -4 15
9 11 11 48 7 139 -3 68 -3 126 0 130 4 4 8 30 9 59 1 28 3 54 4 57 1 3 1 10 0
15 -6 26 2 151 11 161 6 7 6 22 -2 40 -6 18 -9 68 -5 132 3 57 1 114 -4 127
-7 18 -6 27 5 32 16 9 30 136 27 247 -2 42 2 74 10 83 9 11 9 16 -1 22 -7 5
-10 18 -6 33 5 21 11 84 15 153 0 6 -2 53 -4 105 -9 201 -3 494 10 511 6 8 12
22 13 32 4 44 -4 141 -13 156 -4 5 -2 12 3 15 7 5 11 50 11 124 0 130 -4 213
-10 217 -4 2 -4 23 0 47 5 23 5 48 2 56 -7 21 -7 76 1 90 4 6 5 35 2 66 -3 31
-1 57 4 61 7 3 7 15 1 30 -5 13 -6 26 -2 29 5 3 7 20 6 38 -6 80 -6 186 0 196
3 6 1 16 -6 24 -14 15 -17 86 -4 106 4 7 3 19 -3 26 -7 9 -8 29 -2 62 6 32 6
53 -1 61 -5 7 -6 18 -2 24 10 16 11 99 2 99 -14 0 -8 30 6 36 10 4 13 19 10
57 -7 91 0 167 17 178 6 3 8 12 5 18 -4 6 -11 46 -16 89 -4 42 -11 85 -15 95
-5 12 -3 17 6 15 8 -2 14 4 14 12 0 8 -5 14 -11 13 -11 -2 -11 13 1 95 4 29 3
42 -6 42 -9 0 -9 3 0 14 10 11 9 21 -3 45 -9 17 -12 32 -7 36 5 3 8 17 5 31
-3 14 0 32 7 40 9 11 9 18 -1 29 -7 8 -10 21 -7 30 4 8 3 17 -2 19 -14 9 -7
206 7 215 11 7 11 16 1 52 -18 65 -18 65 -3 95 9 17 11 31 5 38 -5 6 -9 27 -9
46 -1 40 -4 60 -15 78 -5 7 0 23 12 38 14 18 18 31 12 42 -5 9 -5 25 1 38 8
16 7 41 0 81 -18 89 -19 314 -2 357 5 13 5 27 0 32 -11 12 -21 109 -12 118 4
4 8 30 8 57 1 27 5 60 8 73 3 14 2 27 -3 30 -10 7 -13 96 -3 96 12 0 7 143 -6
167 -8 14 -9 24 -2 28 12 8 13 45 1 45 -4 0 -6 12 -3 26 3 16 -1 30 -9 35 -11
7 -10 9 4 9 17 0 23 15 9 24 -5 3 -6 20 -4 38 2 18 5 49 7 69 1 20 5 41 9 48
4 6 1 13 -6 16 -9 4 -13 34 -14 113 -1 59 -5 165 -9 236 -5 93 -4 127 4 122 6
-4 11 -2 11 3 0 6 -5 11 -11 11 -7 0 -8 11 -4 29 4 21 2 32 -10 38 -11 7 -14
17 -9 41 4 18 11 32 16 32 6 0 7 8 3 18 -4 9 -9 33 -12 52 -3 19 -9 40 -14 46
-6 7 -1 18 12 30 19 18 20 19 2 32 -16 11 -16 14 -3 22 15 8 15 20 9 265 -1
17 0 41 1 55 1 21 2 312 0 390 0 14 -2 114 -4 223 -2 108 1 200 5 203 5 3 6
11 2 17 -11 18 -12 70 -2 84 7 7 6 14 -1 18 -5 3 -10 3 -11 -2 0 -4 -4 1 -8
12 -5 11 -4 23 1 26 17 11 18 80 2 97 -11 10 -12 17 -4 22 7 4 9 37 7 94 -3
71 -1 88 12 95 13 8 13 12 -7 28 -21 17 -21 19 -5 52 12 24 14 36 6 38 -7 3
-10 10 -7 18 3 7 1 15 -4 19 -12 7 -3 66 10 66 6 0 8 11 6 25 -3 14 -1 28 5
32 6 4 3 11 -7 19 -14 10 -16 16 -6 34 7 13 9 37 5 61 -4 25 -3 45 5 54 7 9 8
20 3 32 -5 10 -8 46 -7 80 2 35 -1 65 -5 67 -11 7 -2 158 11 173 7 9 7 17 -1
26 -6 8 -11 29 -11 48 -2 121 -6 179 -13 179 -5 0 -6 8 -3 18 3 9 9 67 12 127
7 102 7 141 5 300 0 33 2 80 5 105 3 25 5 63 4 85 -1 54 -8 169 -10 175 -1 3
-2 55 -3 115 0 86 3 117 17 143 16 30 16 35 2 45 -12 10 -16 39 -18 147 -2 74
-2 158 -1 185 2 28 2 59 2 70 0 11 2 40 5 65 12 110 20 186 18 193 -1 4 5 7
13 7 9 0 15 9 15 25 0 18 -5 25 -19 25 -31 0 -45 85 -22 129 11 19 11 25 0 32
-14 8 -15 26 -19 383 0 71 1 131 4 134 3 2 1 13 -5 24 -15 29 -22 347 -8 365
9 10 9 19 -1 37 -9 18 -11 50 -6 118 4 51 7 116 6 143 0 28 -1 146 -1 262 0
120 -4 215 -10 218 -15 10 -11 143 6 168 11 17 12 31 6 54 -10 33 -4 80 11 89
19 12 38 -19 38 -62 0 -23 5 -46 11 -49 5 -4 10 -32 10 -63 -1 -61 7 -207 13
-260 2 -17 0 -35 -6 -38 -10 -7 -1 -99 12 -123 7 -13 -5 -47 -21 -61 -19 -17
-30 -72 -21 -99 7 -19 7 -33 1 -36 -5 -4 -6 -12 -2 -18 4 -7 9 -52 11 -102 4
-128 3 -138 -8 -149 -17 -17 -11 -26 15 -26 29 0 48 -35 34 -62 -5 -9 -9 -29
-9 -45 0 -46 -20 -103 -35 -103 -8 0 -15 -4 -15 -9 0 -17 20 -23 34 -12 7 6
21 9 29 5 13 -5 14 -9 4 -25 -6 -10 -17 -19 -24 -19 -7 0 -13 -4 -13 -10 0 -5
5 -10 12 -10 6 0 3 -6 -7 -14 -18 -13 -18 -13 1 -24 10 -6 13 -12 6 -12 -9 0
-10 -5 -2 -19 7 -14 7 -28 0 -47 -8 -20 -7 -31 3 -43 16 -19 22 -75 7 -66 -6
3 -10 14 -10 23 0 14 -2 14 -9 3 -12 -19 -3 -42 26 -64 23 -19 31 -47 13 -47
-5 0 -7 -6 -4 -14 3 -8 1 -17 -5 -20 -6 -4 -8 -20 -4 -36 3 -19 1 -30 -6 -30
-6 0 -11 -4 -11 -10 0 -5 11 -10 25 -10 20 0 25 -6 31 -35 6 -34 -4 -63 -13
-37 -5 14 -53 17 -53 2 0 -5 9 -10 21 -10 18 0 20 -5 16 -55 -2 -34 0 -52 6
-48 6 3 8 -7 5 -27 -5 -30 -4 -32 24 -26 16 3 28 1 28 -5 0 -6 -4 -8 -9 -5
-14 9 -30 -45 -26 -86 2 -28 0 -38 -11 -38 -8 0 -14 -5 -14 -11 0 -6 -7 -18
-16 -27 -15 -14 -15 -16 5 -24 12 -4 21 -16 21 -28 0 -11 5 -20 10 -20 6 0 10
-10 10 -21 0 -18 2 -19 15 -9 12 10 15 10 15 0 0 -8 7 -21 16 -31 15 -17 14
-17 -19 -13 -40 5 -69 -18 -49 -38 7 -7 12 -27 12 -46 0 -21 4 -31 11 -27 11
7 49 -22 49 -37 0 -4 -11 -8 -24 -8 -30 0 -42 -16 -26 -35 7 -8 10 -26 8 -39
-3 -16 -1 -23 7 -20 6 3 18 -3 26 -12 13 -15 12 -16 -11 -9 -23 7 -23 7 -7
-10 21 -21 14 -33 -8 -15 -12 10 -15 10 -15 -1 0 -21 37 -73 42 -59 2 7 16 14
31 16 28 3 37 -10 13 -19 -18 -7 -38 -85 -23 -94 6 -4 13 -1 15 5 2 7 11 12
20 12 15 -1 15 -2 2 -13 -23 -18 -39 -79 -26 -99 6 -10 7 -21 3 -25 -5 -4 -11
-2 -15 4 -9 13 -51 12 -55 -2 -1 -5 5 -10 13 -11 8 -1 26 -2 39 -2 20 -2 22
-5 13 -14 -21 -21 -13 -35 18 -34 16 1 30 4 30 9 0 4 -4 7 -9 7 -5 0 -7 9 -4
20 5 20 33 29 33 10 0 -5 7 -10 16 -10 11 0 14 -5 10 -16 -3 -9 -6 -18 -6 -20
0 -2 -9 -4 -19 -4 -11 0 -23 -5 -27 -11 -4 -8 -9 -7 -14 2 -7 10 -11 10 -24 0
-22 -19 -20 -34 4 -26 16 5 20 2 20 -17 0 -30 -9 -41 -44 -56 -16 -7 -26 -15
-23 -18 3 -3 14 -1 25 5 12 6 32 11 45 11 14 0 32 10 41 23 16 22 16 22 11 -9
-5 -24 -2 -33 11 -38 16 -6 15 -8 -1 -26 -21 -23 -13 -39 9 -21 8 7 20 9 27 5
8 -5 7 -9 -5 -16 -9 -5 -16 -15 -16 -23 0 -9 -6 -12 -15 -9 -8 4 -15 11 -15
17 0 6 -7 19 -16 29 -14 15 -15 20 -3 34 12 14 11 16 -6 12 -14 -3 -19 -11
-18 -26 2 -14 -1 -21 -7 -17 -6 3 -17 -1 -26 -9 -8 -9 -11 -16 -5 -16 5 0 13
5 16 10 12 19 22 1 19 -32 -6 -46 3 -65 34 -73 25 -6 25 -8 9 -19 -25 -19 -21
-29 11 -22 15 4 23 3 17 -1 -5 -4 -16 -16 -24 -25 -12 -16 -11 -18 3 -18 10 0
14 5 11 10 -4 6 6 10 22 10 16 0 34 5 40 11 8 8 13 8 17 0 4 -6 11 -11 16 -11
6 0 10 727 10 1885 l0 1885 -5670 0 -5670 0 1 -135 c1 -75 -1 -139 -5 -142
-18 -19 -24 40 -26 260 0 16 -16 17 -204 17 l-203 0 3 -36z m4345 -10 c12 -34
4 -61 -22 -69 -11 -4 -35 -22 -54 -41 -19 -19 -41 -34 -50 -34 -9 0 -28 -11
-43 -25 -37 -35 -55 -33 -50 5 3 17 1 33 -4 36 -4 3 -8 27 -8 55 0 47 1 49 28
49 48 0 104 -20 98 -35 -8 -22 36 -14 56 10 9 11 19 32 22 48 7 34 14 34 27 1z
m2274 -101 c1 -10 -4 -26 -12 -35 -13 -14 -13 -25 -2 -73 11 -48 15 -56 33
-53 17 2 22 12 27 53 8 71 24 105 50 105 12 0 23 -8 26 -20 3 -11 11 -20 17
-20 15 0 56 -54 56 -73 0 -7 -8 -22 -19 -33 -29 -31 -43 -62 -30 -66 6 -2 -9
-18 -33 -35 -24 -17 -74 -61 -113 -97 -38 -36 -92 -77 -118 -92 -61 -33 -91
-27 -107 21 -6 19 -16 35 -21 35 -6 0 -8 9 -4 19 6 19 -18 53 -43 62 -6 2 -13
40 -16 84 -2 44 -5 81 -6 83 -7 9 -2 61 7 77 17 32 98 68 122 56 26 -14 84
-14 98 0 10 10 74 29 81 23 2 -1 5 -10 7 -21z m4116 -819 c15 -13 24 -14 48
-6 35 12 47 2 31 -27 -14 -28 -12 -51 5 -51 9 0 12 6 8 15 -3 9 2 22 13 29 16
12 16 16 5 30 -12 15 -10 16 24 11 44 -5 55 -13 36 -25 -8 -4 -11 -15 -8 -23
6 -17 -29 -31 -37 -16 -2 5 -3 4 -2 -3 2 -7 11 -13 21 -13 19 0 59 -60 50 -75
-3 -5 -1 -12 5 -15 6 -4 -6 -26 -30 -56 -23 -26 -39 -53 -36 -58 3 -5 -1 -11
-9 -15 -8 -3 -15 -12 -15 -21 0 -19 9 -19 30 0 16 15 18 14 22 -9 4 -18 -2
-31 -19 -46 -13 -11 -28 -18 -33 -15 -19 12 -9 -8 15 -31 27 -25 42 -16 26 15
-10 18 -9 18 19 8 17 -6 30 -15 30 -20 0 -5 -6 -7 -14 -4 -31 12 -27 -33 4
-47 8 -3 3 -4 -12 -1 -38 7 -85 -12 -69 -28 9 -9 14 -9 20 2 6 9 11 10 15 2 5
-8 13 -8 26 -1 15 8 21 6 30 -10 8 -16 8 -20 -4 -20 -7 0 -17 -7 -20 -16 -5
-13 -1 -15 19 -10 15 4 25 2 25 -4 0 -7 5 -8 13 -3 27 17 35 11 30 -21 -3 -17
-10 -37 -15 -44 -8 -9 -5 -18 12 -32 23 -20 23 -20 2 -20 -11 0 -23 -4 -26 -9
-9 -13 16 -20 36 -10 22 12 30 -3 22 -36 -6 -24 -24 -36 -24 -15 0 6 -4 10
-10 10 -5 0 -9 -11 -8 -25 1 -14 8 -25 14 -25 6 0 18 -8 25 -17 10 -12 11 -15
1 -9 -10 6 -11 1 -6 -18 4 -18 2 -26 -7 -26 -11 0 -11 -3 1 -11 12 -9 12 -10
-3 -5 -21 7 -52 -18 -42 -34 9 -15 25 -12 25 5 0 8 5 15 11 15 6 0 8 -9 4 -20
-4 -11 -2 -20 4 -20 6 0 11 6 11 14 0 22 17 29 37 16 17 -11 17 -11 1 -6 -14
4 -18 0 -18 -17 0 -12 -7 -32 -15 -44 -15 -21 -14 -23 11 -39 26 -17 26 -18 5
-26 -23 -8 -28 -26 -8 -33 8 -4 11 -20 9 -48 -3 -32 2 -47 18 -65 19 -20 19
-23 5 -20 -22 4 -30 -46 -10 -62 13 -11 10 -45 -8 -68 -7 -9 -7 -16 1 -24 6
-6 8 -17 5 -24 -3 -8 -1 -14 4 -14 11 0 17 -75 13 -164 -1 -25 9 -33 20 -16 8
13 10 13 10 -1 0 -9 -6 -19 -14 -22 -19 -8 -19 -126 0 -162 7 -14 9 -23 4 -20
-14 8 -23 -34 -10 -50 7 -8 7 -15 1 -19 -11 -7 -4 -110 8 -114 11 -4 1 -55
-13 -64 -8 -5 -7 -11 2 -20 16 -16 16 -48 0 -48 -7 0 -5 -5 5 -11 18 -11 24
-49 6 -49 -6 0 -9 -10 -7 -22 2 -13 8 -21 13 -18 6 3 9 12 8 21 -2 11 7 19 22
23 24 6 35 26 15 26 -5 0 -10 7 -10 15 0 8 2 15 4 15 2 0 12 3 22 7 11 4 15 3
10 -5 -3 -6 -2 -13 3 -17 10 -5 5 -80 -5 -97 -3 -5 0 -15 6 -23 15 -18 5 -35
-21 -35 -21 0 -25 10 -8 27 14 14 -2 45 -18 35 -7 -5 -14 -17 -16 -27 -2 -11
-8 -30 -15 -42 -16 -29 -15 -33 8 -33 11 0 23 -7 26 -15 6 -14 8 -13 19 1 6 9
16 14 22 11 13 -8 15 -177 1 -177 -6 0 -7 7 -4 15 4 11 -3 19 -21 26 -30 11
-36 7 -41 -29 -2 -15 -7 -28 -12 -30 -5 -2 -5 -14 0 -28 7 -17 6 -31 -3 -45
-10 -16 -9 -21 3 -29 27 -18 55 -7 58 23 4 29 16 35 28 15 5 -7 9 -51 11 -99
3 -82 2 -87 -19 -92 -27 -8 -43 2 -29 16 13 13 15 47 2 47 -4 0 -6 10 -4 23 5
28 -11 52 -30 44 -19 -7 -32 -122 -18 -160 8 -20 6 -38 -7 -74 -9 -26 -21 -51
-26 -54 -14 -11 4 -29 29 -29 15 0 26 -7 30 -21 6 -16 12 -19 36 -14 17 4 29
2 29 -3 0 -6 3 -18 7 -28 5 -14 2 -16 -16 -11 -17 4 -21 2 -16 -12 3 -11 -5
-22 -30 -35 -37 -20 -44 -33 -21 -42 18 -7 29 -79 16 -104 -12 -22 10 -50 40
-50 24 0 29 -9 36 -62 5 -42 15 -855 13 -1113 0 -71 -1 -146 -1 -165 0 -64 12
-872 16 -1088 4 -198 3 -214 -16 -237 -10 -13 -19 -27 -18 -30 1 -18 -1 -25
-12 -37 -24 -26 -38 -57 -32 -73 4 -9 -1 -22 -12 -30 -18 -13 -18 -14 -1 -15
9 0 18 1 20 3 1 1 22 -13 47 -30 24 -18 49 -33 54 -33 13 0 15 -99 3 -117 -5
-8 -4 -13 2 -13 6 0 11 -15 11 -34 0 -39 -18 -50 -55 -36 -20 7 -25 18 -31 60
-6 47 -12 55 -41 51 -7 -1 -13 5 -13 14 0 19 -21 15 -37 -6 -14 -19 -4 -64 21
-101 9 -12 16 -29 16 -38 0 -8 5 -31 10 -51 9 -31 16 -38 44 -43 37 -7 44 -22
51 -104 3 -34 0 -44 -16 -53 -17 -9 -18 -13 -7 -26 31 -38 42 -133 17 -149 -5
-3 -4 -15 3 -27 11 -20 18 -130 19 -294 0 -43 4 -63 12 -63 8 0 7 -3 -2 -9
-13 -8 -15 -89 -18 -523 -1 -282 -2 -520 -3 -528 0 -8 0 -87 0 -174 0 -102 -4
-164 -11 -173 -9 -9 -8 -17 1 -27 9 -12 4 -19 -29 -41 -34 -21 -40 -29 -32
-43 5 -10 21 -24 35 -32 17 -8 23 -17 17 -24 -13 -16 -2 -66 14 -60 22 9 28
-15 11 -42 -15 -21 -15 -25 -2 -30 8 -3 15 -13 15 -22 0 -9 2 -34 5 -54 5 -33
3 -38 -13 -38 -24 0 -43 23 -45 55 0 14 -4 25 -7 25 -4 0 -9 9 -12 21 -4 16
-12 20 -39 17 -28 -3 -33 -6 -30 -28 1 -13 6 -27 10 -30 17 -13 31 -51 37
-106 5 -38 16 -68 30 -85 23 -28 24 -62 12 -274 -2 -33 0 -87 4 -119 5 -33 4
-67 -1 -76 -10 -19 -12 -147 -5 -275 7 -121 7 -200 1 -325 -5 -85 -9 -108 -24
-120 -10 -8 -36 -30 -57 -48 -39 -31 -40 -34 -46 -110 -5 -73 -4 -81 29 -150
24 -50 43 -76 58 -83 15 -5 25 -17 25 -31 2 -27 7 -168 12 -360 2 -76 6 -140
9 -143 3 -3 2 -23 -3 -43 -9 -34 -11 -96 -9 -207 1 -22 1 -70 1 -107 0 -38 0
-76 0 -85 0 -10 -3 -41 -7 -69 -4 -32 -2 -59 5 -72 18 -33 2 -98 -34 -144 -36
-45 -36 -59 -1 -78 16 -8 22 -18 19 -31 -4 -13 0 -19 10 -19 18 0 33 -50 28
-97 -1 -21 4 -38 17 -51 24 -24 35 -82 15 -82 -8 0 -12 -4 -9 -9 3 -5 -9 -11
-26 -15 -25 -5 -40 -1 -66 18 -38 27 -72 24 -72 -6 0 -32 50 -127 70 -133 25
-8 32 -33 20 -74 -7 -24 -6 -39 1 -48 6 -7 9 -25 6 -40 -3 -15 0 -34 6 -44 7
-12 8 -31 1 -61 -5 -23 -7 -78 -4 -121 3 -44 2 -81 -1 -83 -4 -2 -7 -34 -7
-70 0 -41 -5 -70 -13 -74 -8 -5 -9 -17 -4 -36 5 -16 7 -39 6 -52 -2 -13 3 -30
9 -38 10 -11 10 -17 0 -29 -8 -10 -12 -47 -12 -102 1 -188 1 -220 -4 -268 -4
-48 -14 -277 -14 -302 1 -7 1 -23 2 -35 4 -114 -16 -313 -34 -335 -6 -7 -7
-13 -4 -13 4 0 2 -8 -3 -18 -13 -25 -70 -26 -96 -2 -11 10 -38 21 -60 24 -66
11 -71 36 -65 321 4 180 3 274 -5 635 -10 399 -8 720 4 734 6 7 8 16 4 20 -10
10 -14 165 -14 571 0 88 0 167 0 175 0 8 0 67 -1 130 -1 63 -2 212 -3 330 0
118 -4 221 -8 228 -5 6 -5 12 0 12 7 0 7 454 -1 590 -1 30 1 68 5 84 5 16 5
34 1 40 -4 6 -7 29 -8 51 0 22 -1 74 -2 115 -1 41 -2 131 -2 200 -1 69 -5 129
-9 133 -5 4 -5 25 -2 45 4 20 6 62 5 92 -1 30 -3 84 -3 120 -1 36 -2 115 -3
175 -2 61 -3 196 -3 300 1 105 -3 193 -7 196 -5 3 -4 17 1 32 12 31 13 61 6
227 -3 69 -7 283 -10 475 -2 193 -7 445 -10 560 -6 239 -11 454 -20 874 -3
162 -8 297 -10 301 -3 5 -6 264 -4 330 1 26 -11 301 -17 405 -3 55 -8 188 -10
295 -1 107 -6 278 -9 380 -4 102 -8 322 -10 490 -2 168 -7 368 -10 445 -3 77
-5 165 -5 195 0 30 0 62 -1 70 0 8 -2 71 -4 140 -2 69 -7 188 -11 265 -4 77
-7 152 -6 167 1 15 -3 30 -8 33 -5 3 -2 17 5 32 8 15 11 31 7 37 -3 6 -8 52
-9 101 -4 116 -16 611 -17 695 0 36 -4 67 -8 70 -12 10 -12 88 1 103 6 9 8 18
3 21 -5 3 -9 70 -10 148 -1 79 -3 166 -6 193 -2 28 0 55 5 61 5 7 6 21 1 34
-5 12 -5 43 -1 69 4 25 3 63 -2 85 -6 21 -7 56 -4 77 4 21 4 43 0 49 -10 16
-13 440 -3 434 4 -3 8 -1 8 5 0 5 -4 11 -10 13 -14 5 -20 78 -8 101 7 14 7 22
-1 26 -7 5 -6 21 4 54 9 29 10 45 4 41 -7 -4 -10 6 -8 27 1 19 -1 42 -5 51 -4
9 -1 27 8 41 13 19 14 30 5 57 -9 25 -9 37 1 53 10 17 9 22 -4 29 -24 14 -21
41 4 33 33 -10 33 15 0 106 -26 72 -28 86 -15 95 9 7 11 14 4 21 -6 6 -6 19 0
36 7 18 7 27 -2 31 -7 2 0 5 16 5 33 1 36 18 5 31 -18 7 -19 9 -5 9 26 1 21
31 -5 32 -13 0 -18 3 -13 5 6 2 9 22 7 44 -2 22 1 46 7 54 6 7 12 26 13 42 1
16 7 33 13 37 7 6 6 10 -2 14 -19 7 -16 36 2 30 8 -4 17 -2 20 3 9 14 16 12
36 -6z m-5717 -66 c-3 -24 -7 -49 -10 -56 -2 -7 2 -25 8 -40 13 -30 20 -129
11 -152 -10 -24 -3 -63 15 -83 14 -16 13 -19 -8 -42 -13 -14 -30 -25 -37 -25
-20 0 -28 30 -14 52 10 15 10 23 0 34 -17 21 -14 140 4 183 16 37 4 81 -22 81
-8 0 -12 3 -8 6 3 3 2 17 -4 31 -8 21 -5 26 24 38 46 20 48 19 41 -27z m840
-4 c43 -16 0 -86 -77 -126 l-39 -19 -23 21 c-13 12 -30 22 -38 24 -26 3 -45
26 -40 46 10 38 160 76 217 54z m1101 -90 c11 -3 33 -24 50 -47 24 -33 30 -54
32 -98 2 -54 1 -57 -37 -85 -21 -16 -46 -41 -57 -57 -10 -15 -23 -25 -29 -23
-7 3 -24 -9 -38 -25 -14 -16 -36 -29 -47 -29 -15 0 -19 -5 -15 -15 6 -18 -26
-37 -48 -29 -11 4 -19 -2 -24 -17 -7 -17 -10 -19 -15 -7 -3 10 -14 14 -30 11
-17 -3 -28 2 -41 21 -9 14 -14 26 -11 26 3 0 1 9 -5 20 -6 11 -15 18 -20 15
-5 -3 -18 -1 -29 4 -19 11 -19 11 1 53 29 60 160 185 272 260 42 29 56 32 91
22z m-1860 -1075 c4 -11 5 -41 4 -67 -2 -26 4 -67 13 -92 9 -25 24 -73 34
-107 11 -35 22 -63 26 -63 11 0 48 -85 52 -121 4 -36 -19 -89 -40 -89 -6 0
-16 -12 -22 -26 -7 -14 -16 -23 -21 -20 -5 3 -11 -4 -14 -15 -3 -11 -14 -23
-25 -26 -11 -3 -26 -18 -32 -34 -11 -26 -21 -33 -41 -31 -3 1 -27 -19 -54 -44
-27 -24 -54 -44 -62 -44 -7 0 -13 -4 -13 -8 0 -5 -21 -20 -47 -34 -38 -20 -55
-23 -82 -18 -55 13 -98 65 -121 147 -22 81 -20 94 24 134 17 16 25 29 19 29
-7 0 -13 8 -13 19 0 10 -7 24 -15 31 -16 13 -19 39 -9 88 5 23 19 40 53 62 56
35 151 132 151 153 0 8 -6 17 -12 20 -8 2 -13 20 -12 42 1 33 5 39 24 40 13 1
28 8 34 16 6 8 18 13 28 11 19 -4 118 46 118 59 0 19 49 9 55 -12z m-3740
-693 c39 -8 84 -17 100 -21 151 -33 381 -54 598 -56 108 -1 197 -5 197 -9 0
-25 -36 -32 -182 -32 -184 0 -590 43 -629 67 -4 3 -45 12 -91 21 -45 9 -89 20
-95 26 -21 17 -15 31 10 24 12 -3 54 -12 92 -20z m1845 -1096 c0 -5 -10 -15
-22 -21 -13 -7 -46 -32 -74 -56 -39 -33 -65 -46 -108 -54 -31 -7 -59 -9 -62
-6 -3 3 0 22 7 41 10 27 19 36 35 36 13 0 25 8 29 19 7 22 45 35 59 21 15 -15
43 -12 78 10 36 22 58 26 58 10z m60 -151 c72 -76 83 -114 43 -146 -15 -13
-32 -23 -36 -23 -4 0 -34 -17 -65 -37 -72 -47 -123 -71 -140 -65 -7 2 -20 -2
-29 -10 -14 -11 -16 -11 -8 1 6 11 2 13 -23 8 -17 -4 -34 -2 -37 3 -4 6 -10 8
-15 5 -5 -3 -19 -1 -30 5 -16 8 -20 21 -20 59 0 82 42 151 92 151 10 0 18 4
18 9 0 5 12 14 28 21 15 6 54 26 87 45 33 18 64 34 69 34 5 1 35 -27 66 -60z
m107 -2903 c-10 -26 28 -48 79 -45 31 2 49 -1 52 -9 2 -7 11 -12 19 -12 22 0
83 -67 83 -90 0 -24 -27 -42 -103 -70 -49 -18 -71 -21 -142 -16 -93 6 -121 18
-130 54 -9 35 12 54 54 50 29 -2 36 1 39 17 3 11 13 26 23 33 23 16 24 31 3
47 -15 11 -15 13 2 33 21 25 28 28 21 8z m-2596 -7949 c7 -23 17 -48 22 -55 5
-7 7 -15 4 -19 -4 -3 -2 -13 2 -22 5 -10 3 -44 -6 -86 -8 -38 -15 -84 -16
-102 -5 -66 -34 -51 -61 32 -20 62 -15 211 9 268 19 45 30 41 46 -16z m8999
-651 c430 -13 490 -16 510 -26 11 -6 24 -8 29 -5 10 6 102 15 186 19 28 1 56
-2 62 -7 7 -5 23 -6 35 -3 57 17 78 17 78 1 0 -12 7 -15 33 -11 17 2 32 5 32
6 0 8 62 5 72 -2 7 -5 21 -7 33 -3 16 5 20 2 20 -14 0 -11 -5 -23 -10 -26 -12
-7 -4 -25 12 -25 5 0 8 7 4 15 -8 21 4 18 25 -6 19 -22 18 -22 -7 -35 -15 -8
-38 -14 -53 -14 -18 0 -29 -7 -36 -22 -6 -14 -26 -28 -50 -36 -22 -7 -47 -15
-55 -19 -8 -3 -21 -5 -27 -4 -7 1 -13 -3 -13 -9 0 -5 -9 -10 -19 -10 -11 0
-21 -4 -23 -9 -1 -5 -32 -12 -67 -15 -35 -3 -79 -11 -99 -18 -26 -10 -36 -10
-39 -2 -8 24 -136 -46 -143 -77 -3 -13 -12 -24 -20 -25 -8 0 -31 -4 -50 -7
-19 -4 -65 -8 -101 -11 -62 -4 -68 -2 -80 20 -13 25 -29 32 -29 13 0 -8 -4 -8
-12 -2 -7 5 -43 20 -80 32 -52 17 -72 20 -87 11 -11 -5 -24 -9 -28 -8 -4 1
-27 -2 -50 -6 -28 -5 -56 -3 -80 5 -49 16 -76 13 -135 -18 -51 -27 -90 -26
-136 4 -27 17 -81 11 -128 -13 -22 -12 -60 -15 -154 -15 -216 2 -301 11 -377
38 -22 8 -58 16 -80 18 -40 3 -101 23 -124 42 -8 6 -31 16 -51 24 -21 7 -38
16 -38 20 0 4 -27 15 -60 25 -33 11 -60 24 -60 29 0 6 -12 16 -27 22 -21 10
-29 10 -36 0 -5 -7 -6 -4 -2 11 5 16 2 22 -9 22 -8 0 -18 -4 -21 -10 -9 -15
-41 9 -42 32 -2 27 -12 35 -23 19 -4 -8 -15 -11 -24 -8 -20 8 -21 27 -1 27 8
0 15 9 15 20 0 11 7 20 15 20 18 0 20 -20 3 -21 -7 0 -4 -4 7 -8 12 -5 23 -4
27 3 4 6 22 11 40 11 20 1 32 6 31 13 -4 15 33 16 42 2 4 -6 16 -8 28 -4 22 7
102 14 147 12 83 -3 288 0 361 6 47 4 179 9 293 10 113 2 209 6 213 9 3 4 58
4 122 2 64 -2 204 -6 311 -9z"/>
<path d="M6277 21352 c-15 -9 -27 -24 -27 -32 0 -9 -14 -21 -31 -27 -17 -7
-28 -16 -25 -22 4 -6 -4 -17 -16 -25 -13 -8 -31 -31 -42 -50 -10 -19 -25 -37
-32 -40 -17 -7 -18 -48 -2 -64 8 -8 8 -15 0 -25 -15 -17 -18 -143 -9 -352 4
-88 9 -232 11 -320 4 -112 11 -182 24 -235 11 -41 20 -103 21 -138 1 -34 6
-86 12 -115 5 -29 12 -72 15 -96 3 -25 7 -48 9 -51 2 -3 7 -40 10 -81 3 -40
10 -85 15 -99 5 -14 8 -32 8 -40 0 -8 1 -35 3 -60 1 -35 -4 -55 -24 -88 -15
-23 -27 -48 -27 -57 0 -8 -13 -21 -30 -30 -42 -22 -39 -51 17 -164 49 -100 73
-131 100 -131 9 0 13 -3 10 -7 -4 -3 0 -14 8 -23 11 -12 17 -45 20 -106 2 -49
9 -145 14 -214 6 -69 12 -159 15 -200 3 -41 8 -124 13 -185 12 -179 9 -938 -5
-1040 -6 -49 -14 -117 -17 -150 -3 -33 -10 -82 -15 -110 -5 -27 -14 -79 -21
-115 -6 -36 -18 -87 -25 -115 -8 -27 -16 -67 -18 -87 -3 -20 -17 -79 -32 -130
-14 -51 -38 -150 -53 -220 -17 -81 -34 -137 -48 -156 -52 -70 -65 -206 -65
-652 0 -439 -5 -392 47 -444 77 -76 211 -156 287 -170 13 -2 42 -9 65 -15 30
-8 60 -9 105 -1 35 5 84 10 110 10 51 0 86 12 133 46 17 12 41 25 55 29 13 4
30 14 38 21 7 8 18 17 25 21 26 17 117 128 117 143 0 9 4 20 9 25 13 15 69
277 92 431 26 180 29 204 33 304 3 47 7 92 10 100 3 8 7 26 8 40 2 14 7 30 10
36 4 6 5 23 2 37 -2 15 0 53 6 84 6 32 13 83 15 113 5 62 11 111 20 155 7 38
17 133 16 163 -1 12 3 22 7 22 4 0 7 33 8 73 1 39 7 124 13 187 7 63 14 140
16 170 2 30 6 82 9 115 3 33 8 101 11 150 3 50 8 104 10 120 2 17 6 102 9 190
4 88 9 178 12 200 10 89 15 276 15 692 1 421 -2 570 -16 808 -4 61 -8 130 -10
155 -9 161 -17 265 -25 330 -5 41 -12 111 -15 155 -4 44 -11 108 -16 142 -5
33 -10 80 -11 102 -1 23 -4 44 -8 46 -4 3 -5 16 -3 29 3 13 0 41 -7 61 -6 20
-13 46 -15 58 -3 28 -26 109 -35 122 -3 6 -8 28 -9 50 -2 22 -7 45 -12 51 -5
6 -10 23 -11 38 -1 15 -8 32 -15 38 -7 6 -13 18 -13 27 0 9 -4 21 -9 27 -5 5
-16 35 -26 67 -10 31 -22 57 -26 57 -5 0 -9 6 -9 14 0 8 -3 16 -7 18 -5 2 -19
23 -32 48 -24 43 -69 106 -101 140 -8 9 -39 34 -69 55 -29 21 -76 60 -104 87
-54 52 -89 67 -110 49 -10 -8 -21 -4 -43 17 -29 28 -31 28 -159 29 -105 1
-135 -2 -158 -15z"/>
<path d="M1061 20256 c-9 -11 -9 -16 1 -23 22 -14 133 -29 166 -22 17 3 55 3
84 -2 147 -22 458 -35 458 -20 0 7 -5 9 -10 6 -6 -4 -17 -1 -25 5 -8 6 -18 9
-23 6 -5 -3 -41 1 -80 9 -75 16 -143 23 -277 30 -130 6 -270 17 -276 21 -4 2
-12 -3 -18 -10z"/>
<path d="M0 13559 l0 -6299 40 21 c21 11 42 29 45 40 4 11 11 17 16 14 5 -4
35 10 67 29 31 20 62 36 67 36 6 0 24 14 42 30 18 17 37 30 42 30 6 0 11 4 11
9 0 5 15 19 32 30 105 68 200 150 194 167 -3 8 0 11 9 8 19 -8 56 21 171 133
51 51 94 91 94 88 0 -2 11 6 25 19 14 13 25 28 25 33 0 5 24 33 53 62 72 72
122 129 122 140 0 5 12 23 28 40 15 17 27 35 27 39 0 5 24 30 53 57 28 27 52
54 52 59 0 5 6 11 12 14 24 7 13 -24 -26 -79 -22 -30 -48 -62 -58 -73 -10 -10
-27 -31 -38 -46 -42 -58 -142 -177 -192 -230 -29 -30 -53 -61 -53 -67 0 -7 -6
-13 -14 -13 -7 0 -25 -15 -39 -33 -37 -48 -255 -267 -267 -267 -6 0 -10 -4
-10 -10 0 -16 16 -12 42 10 93 77 188 164 188 171 0 5 6 9 13 9 29 0 345 352
437 487 8 12 60 83 114 158 110 151 145 207 218 340 105 194 177 349 260 565
79 207 89 236 113 320 13 47 35 123 48 170 14 47 30 117 36 155 7 39 16 84 21
100 6 17 16 77 25 135 32 230 36 257 45 315 21 128 35 500 30 807 -1 48 1 92
5 98 3 5 3 15 0 21 -7 10 -19 692 -14 764 1 17 1 37 0 45 0 8 -3 152 -6 320
-7 434 -11 539 -18 546 -3 4 -4 18 -1 33 6 39 12 1100 5 1107 -3 3 -7 119 -8
257 0 139 -2 259 -2 267 -1 8 0 84 2 168 2 84 0 155 -5 158 -5 3 -6 14 -3 25
4 11 6 115 5 232 0 117 -1 224 -1 239 0 15 -4 30 -8 33 -5 3 -5 24 0 47 6 23
9 105 8 182 -1 78 -2 175 -1 216 0 41 1 406 2 810 1 404 2 767 2 805 1 39 0
97 -1 130 -2 33 0 251 3 485 5 361 8 426 20 436 12 8 13 13 3 23 -14 14 -16
178 -5 453 6 144 11 185 26 215 14 28 17 46 11 68 -5 19 -4 42 3 63 16 44 3
54 -97 76 -44 10 -93 22 -110 26 -27 8 -177 28 -215 29 -8 0 -33 3 -55 6 -22
3 -65 8 -95 10 -30 3 -75 9 -100 14 -25 6 -70 10 -100 11 -30 0 -75 5 -100 11
-25 6 -65 12 -90 14 -25 2 -83 7 -130 10 -46 4 -91 10 -100 15 -19 10 -92 22
-135 21 -16 0 -52 5 -80 10 -27 6 -77 13 -110 15 -33 2 -80 6 -105 9 -25 3
-65 7 -90 9 -84 8 -233 26 -239 31 -4 2 -48 6 -99 9 l-92 5 0 -6300z"/>
<path d="M30688 19199 c-3 -10 -17 -14 -70 -18 -10 0 -18 -6 -18 -12 0 -7 10
-9 24 -7 18 4 23 1 19 -9 -4 -10 -14 -12 -30 -8 -23 5 -24 4 -18 -25 4 -20 2
-37 -7 -47 -10 -13 -10 -17 0 -20 6 -3 10 -8 7 -12 -2 -5 13 -7 35 -5 32 2 42
-2 51 -18 6 -11 8 -22 5 -25 -7 -7 13 -33 25 -33 5 0 9 56 9 125 0 101 -3 125
-14 125 -8 0 -16 -5 -18 -11z"/>
<path d="M18406 18342 c-2 -4 -1 -14 4 -22 5 -8 2 -23 -8 -38 -20 -31 -24 -72
-7 -78 22 -9 27 -35 9 -48 -14 -11 -14 -16 -1 -47 10 -25 12 -41 5 -53 -7 -12
-7 -21 1 -29 6 -6 11 -29 11 -51 0 -23 5 -48 10 -56 8 -13 10 -13 10 2 0 10
14 27 30 40 17 12 30 30 30 40 0 10 5 18 11 18 5 0 7 5 4 10 -4 6 -2 16 3 23
15 19 20 54 11 68 -7 11 -9 10 -9 -4 0 -29 -52 -96 -73 -94 -15 1 -17 7 -12
32 4 16 7 38 7 48 -1 9 3 15 8 12 17 -10 20 14 4 30 -14 13 -14 20 -3 46 22
55 6 159 -25 159 -8 0 -17 -4 -20 -8z"/>
<path d="M18270 15660 c-6 -10 -10 -39 -10 -64 0 -25 -5 -48 -10 -51 -12 -7
-10 -144 2 -151 4 -3 3 -14 -3 -26 -7 -14 -8 -23 -1 -30 6 -6 8 -17 5 -24 -8
-21 4 -44 21 -38 8 3 17 22 20 42 9 58 11 65 25 105 10 29 10 42 2 50 -14 14
-13 43 3 90 8 20 10 37 5 37 -5 0 -9 5 -9 11 0 7 -8 18 -17 25 -17 13 -17 13
0 14 23 0 22 16 -3 23 -13 3 -24 -1 -30 -13z"/>
<path d="M18226 14463 c3 -43 7 -86 9 -96 2 -10 -3 -30 -10 -45 -8 -14 -11
-29 -7 -32 23 -17 44 -119 22 -105 -5 3 -15 -16 -24 -42 -12 -35 -13 -50 -5
-60 7 -7 11 -31 10 -53 -4 -70 -3 -94 8 -155 8 -49 8 -62 -4 -71 -9 -7 -12
-20 -9 -35 3 -13 7 -41 9 -62 1 -21 8 -44 14 -50 15 -15 14 -27 -4 -27 -18 0
-20 -26 -2 -33 9 -3 9 -9 0 -24 -6 -11 -8 -24 -5 -30 11 -17 52 -25 66 -14 10
9 22 3 50 -25 50 -50 54 -44 48 69 -1 15 -8 27 -16 27 -31 0 -36 25 -11 52
l25 27 -23 3 c-12 2 -22 9 -22 16 0 8 -8 19 -17 26 -22 16 -30 122 -11 138 11
9 10 13 -4 23 -15 11 -15 16 -3 46 8 19 20 37 26 42 7 4 11 14 8 22 -4 10 0
15 10 15 10 0 28 12 42 27 20 21 24 34 20 57 -4 18 0 38 9 53 14 21 14 26 0
53 -9 17 -20 30 -26 30 -7 0 -8 11 -4 30 6 27 4 30 -19 30 -31 0 -39 14 -66
116 -12 43 -24 81 -28 84 -4 3 -12 14 -18 25 -6 11 -18 21 -27 23 -13 3 -15
-8 -11 -75z"/>
<path d="M6185 13481 c-33 -15 -72 -64 -88 -111 -16 -47 -13 -70 8 -70 8 0 16
-8 19 -18 14 -42 136 -94 136 -58 0 8 16 35 35 61 l36 46 -23 20 c-16 14 -19
22 -10 25 19 9 14 51 -10 78 -25 28 -72 40 -103 27z"/>
<path d="M6673 13452 c-25 -20 -37 -61 -24 -81 15 -22 87 -31 113 -13 30 21
38 32 38 58 0 49 -81 72 -127 36z"/>
<path d="M1940 9043 c0 -14 -12 -41 -26 -60 -14 -18 -38 -57 -53 -86 -31 -58
-34 -64 -81 -157 -18 -36 -48 -88 -66 -116 -19 -28 -34 -56 -34 -63 0 -6 -4
-11 -8 -11 -5 0 -19 -20 -31 -45 -12 -25 -26 -45 -29 -45 -4 0 -15 -17 -24
-37 -9 -21 -30 -53 -47 -72 -17 -19 -36 -50 -43 -68 -7 -18 -17 -33 -23 -33
-7 0 -17 -10 -23 -22 -20 -39 -52 -84 -79 -113 -7 -8 -13 -21 -13 -29 0 -9 -4
-16 -10 -16 -5 0 -10 -7 -10 -15 0 -8 -7 -15 -15 -15 -8 0 -15 -4 -15 -8 0 -5
-9 -19 -20 -32 -18 -21 -26 -40 -17 -40 14 0 67 34 67 42 0 6 3 9 6 5 4 -3 15
4 25 16 15 19 21 20 38 10 17 -11 22 -10 31 6 5 11 10 27 10 36 0 12 5 15 16
11 10 -4 27 6 47 28 18 18 41 36 52 38 17 4 16 6 -9 17 -32 13 -32 13 36 64
45 34 46 35 32 62 -8 15 -14 31 -14 36 0 12 57 11 65 -1 3 -5 12 -10 18 -10 7
0 6 4 -3 10 -12 8 -11 10 6 10 18 0 22 6 22 38 1 20 3 52 7 71 4 23 2 37 -7
43 -10 6 -9 11 5 19 9 5 17 17 17 24 0 8 5 15 11 15 5 0 9 10 7 23 -2 16 2 22
15 21 19 -2 22 7 6 23 -12 12 26 102 48 110 7 3 13 11 13 17 0 7 9 22 20 34
11 12 20 31 20 44 1 13 7 34 15 48 8 14 14 34 15 45 0 11 9 26 20 33 12 7 18
18 14 24 -4 6 0 16 8 22 30 23 32 76 2 76 -8 0 -14 -11 -14 -27z"/>
<path d="M5380 2466 c0 -8 9 -21 20 -29 20 -14 20 -14 -3 -24 -22 -10 -23 -15
-20 -109 7 -194 15 -540 13 -589 -1 -27 -3 -88 -4 -135 -2 -52 2 -98 10 -117
11 -27 11 -34 -1 -40 -11 -6 -11 -16 -3 -49 8 -28 8 -63 2 -112 -6 -40 -6 -72
-2 -72 5 0 8 -48 8 -107 -1 -113 6 -263 15 -300 3 -12 2 -24 -3 -27 -4 -2 -6
-31 -5 -63 2 -47 3 -142 1 -233 0 -8 3 -100 6 -205 6 -168 9 -220 14 -247 1
-5 13 -8 26 -8 l25 0 -5 277 c-3 153 -7 339 -10 413 -5 158 -16 602 -16 645 1
17 1 45 2 64 0 19 -2 57 -6 85 -4 28 -6 76 -5 106 1 47 1 193 0 225 -1 37 0
430 1 521 1 91 -1 114 -15 127 -20 21 -45 22 -45 3z"/>
<path d="M22946 1453 c-1 -1 -31 -3 -66 -4 -36 -1 -71 -6 -77 -12 -9 -6 -13
-6 -13 2 0 9 -17 10 -59 5 -93 -10 -569 -25 -771 -24 -58 1 -127 1 -155 1
-262 -1 -445 0 -700 4 -165 3 -577 7 -915 10 -338 3 -661 7 -717 9 -59 3 -103
0 -103 -5 0 -5 19 -10 43 -10 46 -2 69 -5 77 -9 6 -3 60 -7 215 -14 165 -7
331 -22 345 -31 9 -6 8 -10 -4 -17 -9 -5 -21 -6 -26 -3 -6 3 -10 -1 -10 -9 0
-19 13 -20 41 -6 11 7 19 7 19 1 0 -15 73 -23 103 -12 17 7 28 7 32 0 4 -6 95
-7 253 -3 136 3 258 5 272 4 26 -2 87 -3 180 -2 30 0 162 1 292 1 131 0 242 2
247 6 5 3 12 1 16 -5 4 -7 12 -7 24 0 10 5 21 7 24 3 10 -9 208 -12 249 -3 21
4 40 4 46 -2 6 -6 35 -6 82 1 49 8 76 8 85 1 6 -5 15 -7 19 -3 3 4 68 6 144 4
75 -1 151 -2 167 -1 17 1 167 3 335 5 575 6 910 20 910 37 0 6 -11 7 -25 4
-15 -4 -37 0 -55 9 -24 12 -38 13 -77 4 -80 -18 -197 -10 -238 17 -24 16 -25
19 -11 29 9 7 16 15 16 19 0 9 -58 7 -62 -2 -1 -4 -36 -5 -76 -2 -40 3 -74 4
-76 3z"/>
</g>
</svg>
